<svg width="525" height="642" viewBox="0 0 525 642" fill="none" xmlns="http://www.w3.org/2000/svg">
<path d="M186.375 4.89807C143.675 17.6681 101.675 43.0332 81.0251 68.7482C65.4501 88.1656 54.2501 109.682 52.3251 123.852C51.4501 130.324 49.7001 140.995 48.1251 147.817C46.7251 154.465 44.9751 169.159 44.2751 180.005C43.4001 196.798 42.5251 200.997 39.2001 205.895C37.1001 209.044 34.8251 214.991 34.1251 219.015C32.9001 225.662 33.2501 226.712 37.4501 230.035C40.7751 232.659 42.0001 235.283 42.0001 239.832C42.0001 247.878 34.8251 254.876 17.5001 263.098C10.3251 266.596 3.85007 270.445 3.15007 271.669C7.34329e-05 276.567 1.75007 283.215 7.00007 287.063C10.5001 289.687 12.6001 293.011 13.3001 297.209C14.8751 307.005 17.5001 313.478 23.2751 320.825C27.3001 326.073 28.7001 329.747 28.8751 335.694C29.0501 340.068 30.9751 347.59 33.0751 352.138C37.4501 361.584 37.4501 372.43 33.2501 374.354C31.8501 375.054 28.3501 376.453 25.3751 377.328C20.1251 378.902 20.1251 378.902 19.6001 393.597C18.3751 427.533 18.7251 438.554 21.1751 449.225C25.3751 468.293 33.2501 475.115 43.7501 469.167C46.5501 467.593 49.0001 465.669 49.0001 464.969C49.0001 464.444 51.9751 464.269 55.6501 464.794C60.3751 465.494 63.1751 464.794 65.1001 462.87C66.6751 461.295 69.1251 460.071 70.7001 460.071C72.1001 460.071 73.6751 459.371 74.2001 458.496C74.7251 457.797 80.3251 456.572 86.8001 456.047C93.1001 455.348 99.5751 453.948 100.975 452.724C102.375 451.499 106.575 450.799 110.075 451.149C118.3 451.674 125.3 449.05 127.75 444.327C129.325 441.528 129.15 438.554 127.05 431.732C124.25 422.286 124.6 419.836 128.625 419.836C130.025 419.836 131.6 422.46 132.125 426.309C134.05 437.505 134.925 439.254 139.475 441.003C145.6 443.277 151.2 441.353 155.4 435.58C158.9 430.857 159.6 430.682 170.1 431.557C182.525 432.607 183.225 433.306 200.55 457.447C211.75 473.191 212.275 474.59 208.95 482.812C205.1 492.433 198.1 497.331 162.4 515.699C122.325 536.341 120.575 537.566 117.775 544.213C114.625 551.91 114.625 551.91 122.675 560.657C127.225 565.555 129.675 569.753 129.5 572.377C128.8 579.899 129.5 580.774 139.125 586.896C150.85 594.419 153.125 597.917 158.55 615.06C164.15 633.253 169.225 639.726 179.375 641.3C185.85 642.175 189 641.65 196.525 637.977C211.925 630.28 220.85 622.932 244.475 597.742C257.075 584.447 271.075 570.978 275.8 567.829C280.525 564.68 287.875 557.858 291.9 552.96C296.1 548.062 303.8 540.714 309.05 536.866C326.375 524.096 341.775 506.953 346.15 495.582C351.05 482.287 351.05 475.29 345.45 454.823C339.85 434.881 338.275 410.215 341.25 388.874C343.7 369.806 344.925 367.357 348.775 373.305C350.35 375.754 355.425 379.952 359.975 382.576C367.675 387.124 369.775 387.474 385 387.299C404.95 387.299 411.775 384.675 432.075 369.631C439.6 364.033 452.375 354.762 460.25 348.989C485.275 330.971 495.775 319.251 507.675 295.46C520.275 270.27 523.6 256.975 523.775 232.659C523.95 215.166 520.625 196.798 516.25 191.55C514.15 189.101 508.375 167.235 504 146.068C497 111.956 486.5 87.8158 469 65.5994C459.55 54.054 439.25 34.4615 429.1 27.4643C420.525 21.6915 400.4 11.8953 389.55 8.39673C373.625 3.32367 340.2 1.04956 303.625 2.79889C265.3 4.54822 245.35 4.54822 217.875 2.97382C200.2 1.92419 195.125 2.27411 186.375 4.89807ZM257.95 9.62122H282.1L277.2 13.1199C262.15 23.9656 257.775 27.8141 254.1 33.2371C250.425 38.6599 250.075 40.5842 251.125 51.0801C252.35 62.4507 252.175 63.3253 246.75 71.1973C242.375 78.0196 241.325 80.8185 242.025 86.0665C243.075 93.5885 239.925 95.5128 230.125 93.7635C226.8 93.0637 222.775 93.4136 221.025 94.2883C219.275 95.1629 211.225 97.2621 203 98.6616C180.95 103.035 171.5 105.484 171.5 107.058C171.5 108.983 171.325 108.983 185.85 105.134C192.85 103.21 203.35 101.111 209.125 100.411C214.9 99.8861 220.5 98.8365 221.375 98.1368C222.425 97.6119 226.275 97.0872 230.125 96.9122C233.975 96.9122 239.75 96.2125 242.9 95.3378C250.25 93.5885 250.6 97.437 243.25 100.236C240.45 101.286 238 102.86 238 103.56C238 105.484 238.875 105.309 245.7 102.16C249.375 100.411 252.875 99.7111 254.975 100.586C257.6 101.635 257.25 102.16 252.175 104.434C243.775 107.933 246.575 109.157 255.325 105.659C259.35 104.084 263.025 103.21 263.55 103.56C263.9 104.084 261.975 105.484 259 106.708C256.2 107.933 253.75 109.682 253.75 110.557C253.75 111.432 257.6 110.032 262.325 107.583C276.5 99.7111 284.2 103.735 280.35 117.029C278.775 122.102 275.8 125.776 269.5 130.674C264.775 134.348 259.7 139.771 258.3 142.744C254.8 149.917 249.375 153.24 236.775 156.389C229.425 158.138 228.025 158.838 231.875 159.013C239.225 159.188 250.95 156.214 251.65 154.115C252 153.065 253.05 152.191 254.1 152.191C255.15 152.191 255.5 154.465 254.8 158.313C254.1 161.812 254.1 165.486 254.8 166.535C255.5 167.76 257.075 162.862 258.3 155.689C260.4 143.969 261.275 142.045 267.225 136.797C270.9 133.473 275.625 129.275 277.725 127.35C283.5 122.277 286.3 110.557 283.15 104.959C281.05 101.111 279.3 100.411 269.325 99.7111C258.125 98.8365 254.8 97.437 247.8 90.4398C245.35 87.9907 244.825 85.7166 245.7 80.8185C246.925 72.0719 252.175 68.2234 262.325 68.2234C268.975 68.0485 269.85 67.6986 267.225 66.2991C265.3 65.2496 261.625 64.8997 258.825 65.4245C252 66.824 252.35 63.6752 259.525 60.3515C264.95 57.7275 264.95 57.7275 260.4 58.4272C257.425 58.7771 255.5 58.2523 255.5 56.8528C255.5 54.7537 274.225 48.4561 288.75 45.8322C293.125 44.9575 298.375 43.3831 300.125 42.3335C302.925 40.7591 302.4 40.5842 296.625 41.4588C290.85 42.3335 268.625 48.1063 257.075 51.7798C252.875 53.1793 251.3 45.1324 254.45 37.7853C257.25 30.9629 274.925 16.0937 287 10.321C294.525 6.82233 296.625 6.6474 326.375 7.52203C364.875 8.74658 382.725 12.4202 405.125 23.4409C428.4 34.9863 442.05 44.6076 456.925 59.4768C479.15 81.6932 492.1 107.933 500.5 146.943C506.625 176.156 510.3 188.926 515.375 200.997C521.5 215.691 522.9 232.659 518.875 250.153C517.3 257.325 515.725 265.721 515.375 268.695C514.5 278.142 495.775 312.778 486.325 322.749C474.95 334.82 445.55 355.287 418.775 369.981C399.35 380.652 396.375 381.701 385.175 382.401C377.3 382.926 372.75 382.576 372.75 381.351C372.75 380.477 371.175 379.602 369.25 379.602C367.15 379.602 363.65 378.378 361.375 376.803L357 374.004L361.725 370.156C364.35 368.232 366.975 366.482 367.675 366.482C368.375 366.482 372.225 362.109 376.25 356.861C380.45 351.613 386.4 344.266 389.725 340.592C392.875 337.094 395.5 333.07 395.5 331.846C395.325 329.397 388.675 337.094 377.65 351.963C373.625 357.561 369.95 361.759 369.6 361.409C369.25 361.059 371.175 356.511 373.8 351.263C380.45 338.143 383.075 323.799 380.975 312.603C378.875 301.932 375.375 297.384 361.55 288.463C351.75 281.99 350.525 281.64 337.05 281.64C321.825 281.64 309.75 285.839 301.35 293.886C296.1 298.784 297.85 300.883 303.275 296.16C308.525 291.262 314.125 288.638 324.625 285.839C340.55 281.465 355.25 285.664 370.65 298.609C382.025 308.405 381.675 330.621 369.425 354.587C363.475 366.482 358.4 371.73 354.2 370.156C351.575 369.106 351.575 368.581 354.9 365.083C359.275 360.36 369.95 339.193 372.4 329.922C376.425 315.752 365.75 298.084 350.875 294.06C342.825 291.961 325.5 291.436 325.5 293.361C325.5 294.235 330.05 294.935 335.65 294.935C350.7 295.285 358.575 298.784 364.875 307.53C369.25 313.828 370.125 316.802 369.95 324.674C369.95 330.096 368.9 334.995 367.675 336.394C365.75 338.143 365.575 337.793 366.625 334.47C369.95 323.099 361.025 306.481 349.125 302.632C340.025 299.658 323.75 303.332 306.6 312.603C298.55 316.977 291.55 320.125 291.2 319.601C290.675 319.251 295.75 315.227 302.225 310.679C311.15 304.731 317.275 301.932 326.375 300.008L338.625 297.559L328.475 298.259C316.225 298.959 306.6 303.507 293.825 314.003C288.75 318.376 283.5 322.749 282.275 323.624C279.65 325.723 264.25 325.898 264.25 323.974C264.25 323.099 267.4 321.35 271.075 320.125C276.5 318.376 277.55 317.501 275.975 315.752C274.225 314.003 271.95 314.353 264.775 317.676C254.275 322.225 252.175 320.3 262.15 315.052C265.65 313.128 267.925 311.554 267.225 311.379C266.35 311.379 264.25 312.253 262.325 313.128C260.575 314.178 259 314.527 259 314.178C259 313.128 268.625 307.88 270.375 307.88C270.9 307.88 270.9 308.755 270.375 309.629C268.8 312.253 271.075 311.729 274.05 308.755C275.625 307.355 278.95 306.131 281.75 306.131C284.55 306.131 287.35 305.256 287.875 304.381C289.275 302.282 286.3 302.107 278.25 304.207C274.925 305.081 270.025 306.306 267.4 306.831C264.775 307.53 259.875 310.329 256.55 313.303C252.35 316.802 247.625 319.076 241.15 319.95C228.025 322.225 215.425 327.298 200.55 336.569C193.55 340.942 179.55 347.939 169.575 351.963C153.825 358.26 149.45 359.31 138.075 359.31C122.5 359.485 118.825 357.386 113.4 344.616C111.475 340.242 108.675 335.344 107.1 333.595C104.3 330.446 104.475 330.446 108.675 332.371C113.925 334.82 119 342.517 119 348.289C119 351.263 119.525 351.788 120.925 350.389C122.5 348.814 122.5 347.065 120.925 343.391C116.9 333.77 113.05 330.446 105 329.747C100.8 329.397 95.2001 327.472 92.4001 325.373C89.7751 323.449 87.5001 322.574 87.5001 323.624C87.5001 324.499 85.9251 325.373 83.8251 325.373C79.2751 325.373 80.3251 329.572 85.0501 330.446C86.8001 330.621 89.7751 332.196 91.5251 333.77C94.8501 336.744 95.7251 334.295 92.4001 330.971C90.8251 329.397 90.8251 328.872 92.2251 328.872C93.4501 328.872 94.8501 329.747 95.3751 330.621C95.9001 331.496 97.8251 332.371 99.5751 332.371C101.325 332.371 104.125 334.12 106.05 336.219C109.025 339.543 109.025 339.893 106.225 338.843C103.25 337.793 102.025 340.068 104.825 341.817C105.7 342.342 107.275 346.54 108.5 351.088C109.55 355.811 112.525 362.109 114.975 365.258C121.45 373.654 121.975 370.856 115.675 361.934C112.7 357.911 110.25 353.362 110.25 351.788C110.425 349.864 111.125 350.214 112.7 353.013C116.725 360.36 124.25 363.858 135.8 363.858H146.3L148.4 370.331L150.325 376.978L149.625 370.331C148.75 361.584 151.55 361.934 152.95 370.856C153.475 374.704 154.7 377.853 155.575 377.853C156.625 377.853 156.625 375.579 155.575 372.255C153.125 363.683 153.475 362.634 158.9 361.409C161.525 360.71 165.025 359.835 166.775 359.31C169.575 358.435 169.925 358.96 168.875 361.934C168.35 363.858 168.35 366.482 169.225 367.707C170.1 369.106 170.975 367.532 171.5 362.984C172.025 358.435 173.425 355.811 175.175 355.462C177.45 355.112 177.8 355.986 177.275 359.485C176.75 361.934 177.1 363.858 178.15 363.858C179.2 363.858 180.25 361.234 180.6 358.26C180.95 354.762 182.175 352.313 183.925 351.963C186.025 351.613 186.55 352.663 185.85 357.211C185.5 360.36 185.675 362.459 186.375 361.759C187.25 360.884 188.125 357.911 188.475 354.762C189 349.514 191.45 346.54 194.95 346.365C195.65 346.365 195.825 347.765 195.125 349.339C193.025 354.937 192.15 363.333 193.9 360.36C194.775 358.96 196 354.762 196.7 351.263C197.575 346.365 199.325 344.091 204.05 341.292C211.75 336.744 212.1 336.744 210 342.167C207.9 347.765 207.725 360.36 209.825 360.36C210.7 360.36 211.75 355.112 212.1 348.814C212.625 340.068 213.675 336.569 216.125 334.82C220.675 331.496 222.95 331.671 221.375 335.344C220.675 337.094 219.8 343.216 219.45 348.989L218.925 359.485L220.675 348.639C222.95 333.945 224.7 329.572 229.25 328.347C232.225 327.647 232.75 327.997 231.7 330.271C231 331.846 230.3 337.968 229.95 343.741L229.425 354.237L231 343.391C232.4 332.895 235.725 324.149 237.3 325.898C237.825 326.423 237.475 330.796 236.6 335.694C235.725 340.592 235.55 344.091 236.425 343.566C237.125 343.216 238.35 339.193 239.05 334.995C240.1 327.997 242.375 323.799 244.125 325.723C244.475 326.073 244.125 329.397 243.25 333.07C242.375 336.744 242.375 339.193 243.25 338.318C244.125 337.444 245 334.82 245.525 332.371C246.225 327.997 246.225 327.997 246.575 332.72C246.75 336.569 244.125 340.242 235.025 349.514C228.375 355.986 218.75 364.383 213.325 367.882C207.9 371.555 201.425 377.328 198.8 381.002C193.375 388.524 192.85 385.9 197.575 375.929C199.675 371.555 200.2 369.106 198.975 369.456C197.75 369.981 195.3 374.879 193.375 380.652C191.45 386.25 189.175 392.022 188.475 393.247C186.9 395.696 183.05 396.221 184.45 393.772C185.85 391.672 183.575 376.104 182.175 376.104C181.475 376.104 181.3 381.002 181.65 386.774C182.175 394.646 181.825 397.97 180.075 399.02C175.525 401.993 174.825 400.594 175.875 390.973C176.75 384.325 176.575 381.351 175.175 381.351C173.95 381.351 173.25 385.2 173.25 391.847C173.25 400.419 172.725 402.518 169.75 404.093C166.425 405.842 166.25 405.492 166.25 395.346C166.25 389.573 165.55 384.85 164.675 384.85C163.8 384.85 163.45 387.999 163.975 391.672C165.9 405.492 160.3 413.889 158.2 400.594C157.5 396.745 156.45 393.597 155.575 393.597C153.125 393.597 153.825 405.492 156.275 406.367C159.075 407.416 157.675 408.641 151.55 410.04L146.65 411.265L147.875 400.594C148.75 393.422 148.575 390.098 147.175 390.098C145.95 390.098 145.25 393.947 145.25 400.069V410.215L137.025 413.539C132.65 415.463 125.125 417.038 120.575 417.387C115.5 417.562 109.55 419.312 106.05 421.586C101.85 424.035 97.6501 425.084 92.4001 424.91C88.2001 424.735 83.8251 424.91 82.4251 425.259C80.8501 425.784 79.4501 423.86 78.4001 419.836C77.5251 416.513 75.9501 410.74 75.0751 407.066C74.2001 403.568 72.8001 400.594 71.9251 400.594C71.0501 400.594 71.9251 405.842 73.6751 412.314C75.6001 418.787 77.0001 424.56 77.0001 425.259C77.0001 425.959 72.6251 426.309 67.3751 426.134L57.7501 425.959V417.912C57.7501 408.116 56.0001 398.845 54.2501 398.845C53.5501 398.845 53.2001 400.594 53.5501 402.693C53.9001 404.967 54.4251 411.09 54.9501 416.338L55.6501 425.959L48.6501 426.484C42.1751 426.834 41.8251 426.659 43.0501 422.985C45.6751 414.589 49.0001 401.294 49.0001 399.02C49.0001 393.072 45.8501 400.594 42.8751 413.714C39.7251 427.359 37.6251 432.082 35.1751 432.082C33.9501 432.082 33.6001 429.283 32.9001 413.714C32.5501 406.542 39.9001 388.874 44.8001 384.675C46.2001 383.626 47.2501 381.876 47.2501 381.002C47.2501 379.952 46.2001 379.952 44.8001 381.177C42.8751 382.926 42.1751 382.576 41.3001 380.127C40.7751 378.028 40.6001 378.553 40.7751 381.351C40.9501 383.801 38.8501 389.223 36.4001 393.597C29.5751 405.317 27.4751 413.189 29.7501 418.787C30.6251 421.411 31.5001 425.609 31.5001 427.883C31.5001 431.557 30.8001 432.257 27.6501 431.732C22.2251 431.032 20.8251 421.411 23.9751 409.166C25.9001 401.993 26.0751 398.145 24.6751 393.422C22.2251 385.2 23.6251 381.351 29.2251 381.351C32.2001 381.351 36.5751 378.378 43.0501 371.73C51.6251 363.159 52.5001 361.409 52.5001 354.762C52.3251 343.741 47.6001 334.995 37.6251 327.472C32.9001 323.974 26.6001 317.676 23.8001 313.478C19.2501 307.18 18.7251 305.431 20.6501 302.632C21.8751 300.708 22.7501 297.384 22.7501 295.285C22.5751 291.611 22.4001 291.786 20.1251 296.51L17.8501 301.757L17.6751 295.81C17.5001 291.436 15.9251 288.638 11.3751 284.264C7.35007 280.766 5.60007 277.617 6.12507 276.042C6.82507 274.468 14.0001 270.095 22.4001 266.246C40.9501 257.675 45.6751 253.126 46.7251 242.281C47.2501 237.907 48.4751 233.884 49.3501 233.184C51.8001 231.785 54.0751 235.808 53.0251 239.832C51.8001 244.555 54.0751 244.03 56.0001 239.132C57.2251 236.158 57.5751 235.983 57.5751 238.257C57.7501 241.406 61.2501 242.805 61.2501 239.832C61.2501 236.158 58.9751 232.659 56.7001 232.659C55.3001 232.659 54.2501 231.435 54.2501 229.86C54.2501 227.761 53.2001 227.236 50.4001 227.936C43.7501 229.686 38.5001 227.411 38.5001 223.038C38.5001 214.991 42.0001 209.918 57.7501 194.874C67.0251 185.778 72.8001 179.13 71.5751 178.43C70.5251 177.731 69.8251 172.483 70.1751 165.486C70.3501 159.188 70.0001 153.415 69.4751 152.716C68.4251 151.666 67.7251 159.538 67.5501 176.156C67.3751 179.13 66.6751 182.279 65.9751 183.154C65.1001 183.853 64.5751 179.48 64.7501 173.183C65.1001 156.214 64.2251 156.214 63.1751 173.008C62.4751 183.504 61.4251 188.052 59.6751 188.577C57.7501 189.276 57.4001 187.702 58.4501 180.355C59.1501 174.582 58.9751 171.433 57.7501 171.433C56.7001 171.433 55.8251 176.156 55.6501 182.279C55.4751 193.125 55.4751 193.3 54.2501 185.428L53.0251 177.556L52.8501 186.652C52.5001 197.148 49.0001 199.597 49.0001 189.276C49.0001 182.804 54.2501 147.293 57.7501 129.974C61.7751 110.032 74.2001 85.7166 89.0751 68.5732C102.725 52.8294 135.625 30.613 160.125 20.8169C189.875 8.92151 198.625 6.99725 217 8.39673C226.1 9.09644 244.475 9.62122 257.95 9.62122ZM348.425 307.88C351.05 309.454 351.75 311.729 351.75 319.251C351.75 324.499 351.05 328.872 350 328.872C349.125 328.872 348.25 324.674 348.25 319.426C348.25 312.953 347.55 309.629 345.8 309.105C342.3 307.705 341.25 309.454 341.425 315.577C341.425 320.125 341.775 320.475 343 317.501C343.875 315.227 344.225 318.201 343.875 325.373C343.175 339.368 343.175 339.368 341.25 334.995C339.5 330.796 338.975 308.93 340.725 307.355C342.3 305.606 344.4 305.781 348.425 307.88ZM333.55 337.618C334.425 358.435 334.25 359.135 331.625 353.537C330.225 350.389 329 345.316 329.175 342.167C329.35 336.919 329.35 336.919 330.925 341.117C331.975 344.441 332.15 343.566 331.625 337.618C329 311.904 329 307.005 330.925 311.379C331.975 313.828 333.2 325.548 333.55 337.618ZM324.625 316.977C325.15 321.175 325.675 331.146 326.025 339.368C326.2 350.563 327.075 354.587 329 355.462C330.925 356.336 330.575 356.686 327.6 356.686C324.275 356.861 323.75 356.161 324.625 351.613C325.15 348.464 324.8 346.365 323.75 346.365C322.525 346.365 322.175 343.041 322.875 337.094C323.575 330.796 323.225 329.047 322.175 331.496C320.775 334.295 320.425 334.295 320.425 332.196C320.25 330.621 319.9 326.598 319.375 323.449C318.675 318.551 318.85 318.201 320.25 321C321.65 323.624 321.825 322.749 320.95 316.977C320.25 312.428 320.6 309.629 321.825 309.629C322.7 309.629 323.925 312.953 324.625 316.977ZM312.55 315.752C312.025 317.151 312.2 318.376 313.075 318.376C314.475 318.376 319.2 356.686 317.975 358.086C317.45 358.435 316.575 354.937 316.05 350.389C313.075 329.222 310.975 320.3 309.575 321.175C308.7 321.7 308 320.475 308 318.551C308 315.752 309.575 314.003 313.075 313.303C313.425 313.128 313.25 314.353 312.55 315.752ZM307.475 322.225C310.975 329.397 315.7 360.36 313.6 362.459C312.375 363.683 311.5 360.71 310.625 352.313C309.925 345.665 308.7 337.444 307.825 334.12C306.775 329.397 306.6 330.271 307.3 337.618C308.7 349.514 306.95 348.464 304.5 335.869C303.1 328.697 303.275 326.073 304.85 324.848C306.6 323.624 306.6 323.099 305.025 322.399C302.575 321.525 301.875 318.376 304.15 318.376C305.025 318.376 306.425 320.125 307.475 322.225ZM355.25 343.566C354.025 344.791 353.5 341.642 353.5 333.07C353.5 316.977 355.95 314.527 356.65 329.922C357 336.569 356.3 342.517 355.25 343.566ZM250.25 327.123C251.3 325.548 252.35 325.373 254.8 326.948C256.725 327.997 257.075 328.872 256.025 328.872C254.8 328.872 253.75 329.922 253.75 331.321C253.75 332.545 252.525 334.645 251.125 335.869C249.025 337.618 248.5 337.444 248.5 334.47C248.5 332.545 248.15 329.922 247.975 328.522C247.625 327.298 247.625 326.948 248.15 327.822C248.5 328.522 249.55 328.347 250.25 327.123ZM292.95 326.773C293.475 327.647 294.7 332.545 295.575 337.793C299.25 357.211 302.925 371.73 304.5 372.255C305.55 372.605 305.375 374.354 304.325 376.453C302.575 379.777 301.7 378.028 298.025 363.683C295.575 354.587 293.125 344.441 292.25 341.117C291.55 337.793 290.325 332.895 289.625 330.096C288.4 325.723 290.675 323.274 292.95 326.773ZM263.2 341.467C263.725 349.514 264.6 364.208 265.125 374.354C265.825 384.5 266.525 394.471 267.05 396.571C267.575 399.369 267.05 400.594 265.125 400.594C263.025 400.594 262.5 397.795 262.5 384.85C262.5 374.354 261.8 369.106 260.575 369.106C259.175 369.106 258.825 373.654 259.35 383.975C259.875 394.821 259.525 398.845 257.95 398.845C256.55 398.845 256.025 394.646 256.375 384.325C256.55 376.453 256.2 362.809 255.5 354.237C254.975 345.49 254.8 337.618 255.325 336.744C255.85 335.694 256.9 340.942 257.425 348.114L258.3 361.234L258.65 344.091C258.825 334.82 259.7 327.123 260.575 327.123C261.45 327.123 262.5 333.595 263.2 341.467ZM295.75 364.733C296.45 367.532 298.2 372.955 299.25 376.628C300.475 380.827 300.65 384.15 299.425 386.075C298.2 388.524 297.5 387.824 296.1 382.226C295.225 378.378 293.125 370.156 291.725 363.858C289.45 354.762 289.1 354.062 289.8 360.36C290.325 364.733 291.9 373.829 293.475 380.827L296.275 393.422L291.725 400.419C286.475 408.291 282.975 409.166 274.925 404.967C270.2 402.693 269.85 401.644 268.8 387.999C266.35 353.013 265.65 330.621 267.225 330.621C268.1 330.621 268.8 335.519 269.15 341.467C269.5 358.96 272.825 399.369 273.875 400.244C275.975 402.518 276.15 398.495 274.75 382.226C271.6 345.665 270.9 330.621 272.65 330.621C274.225 330.621 276.325 354.237 276.675 377.853C276.85 385.025 277.55 393.247 278.075 396.221C279.3 401.469 279.3 401.469 280.7 394.122C281.4 390.098 281.575 386.075 281.05 385.2C280.525 384.325 279.65 378.203 279.3 371.555C278.775 364.908 277.9 352.663 277.2 344.266C276.15 330.096 276.325 329.222 279.3 329.572C281.575 329.922 282.8 331.671 282.975 335.169C283.325 339.543 283.15 339.718 281.75 336.744C279.825 332.371 279.475 354.237 281.225 364.733L282.45 371.73L283.675 365.608C284.55 360.884 284.9 362.109 285.25 371.73C285.425 378.378 286.125 387.824 287 392.722C288.575 402.518 287.875 349.864 286.3 334.995C285.6 328.347 286.3 330.271 289.625 342.866C292.075 351.963 294.875 361.759 295.75 364.733ZM303.275 347.24C303.975 355.986 303.8 358.086 302.75 354.237C300.65 347.415 298.725 324.499 300.65 330.621C301.525 333.07 302.75 340.417 303.275 347.24ZM35.7001 332.895C36.9251 333.945 38.5001 337.793 39.0251 341.117C39.9001 345.665 39.7251 346.54 38.3251 344.616C36.9251 342.692 36.7501 343.566 37.6251 348.114C38.5001 352.663 38.3251 353.537 36.9251 351.613C35.8751 350.214 35.0001 345.84 35.0001 341.817C35.0001 337.968 34.1251 333.945 32.9001 332.72C31.6751 331.496 31.3251 330.621 32.2001 330.621C32.9001 330.621 34.4751 331.671 35.7001 332.895ZM43.5751 344.966C41.3001 356.511 42.0001 360.535 44.6251 350.738L46.9001 341.992L47.0751 352.663C47.2501 359.835 46.3751 364.033 44.8001 365.433C42.8751 367.007 42.1751 365.957 41.3001 360.185C40.0751 352.138 41.6501 337.618 43.7501 337.618C44.4501 337.618 44.4501 340.942 43.5751 344.966ZM340.55 361.234C340.025 362.109 339.675 361.234 339.675 358.96C339.5 356.861 338.8 355.112 337.75 355.112C335.65 355.112 335.475 346.365 337.225 341.642C338.1 339.543 338.975 341.817 339.85 348.989C340.55 354.762 340.9 360.185 340.55 361.234ZM348.95 342.167C350.875 346.89 350 354.412 347.375 357.911C345.1 360.884 344.925 360.36 344.75 350.214C344.75 339.893 346.675 336.219 348.95 342.167ZM253.575 364.733C253.75 369.806 253.225 371.03 252 369.106C251.125 367.707 250.425 360.535 250.425 353.362C250.775 340.417 250.775 340.417 252 348.989C252.875 353.712 253.575 360.884 253.575 364.733ZM247.8 351.963C247.975 357.036 248.675 369.281 249.375 379.077C250.425 392.547 250.25 397.095 248.675 397.095C247.275 397.095 246.925 395.171 247.8 391.148C249.2 382.926 244.825 350.389 243.075 357.736C242.025 362.809 241.85 362.809 241.675 356.336C241.5 349.689 243.95 342.866 246.4 342.866C247.1 342.866 247.8 347.065 247.8 351.963ZM360.325 351.088C357.7 358.61 350.7 366.307 348.25 364.733C346.5 363.683 346.5 362.984 348.425 361.409C349.825 360.36 353.325 356.511 355.95 352.838C361.9 345.141 362.6 344.791 360.325 351.088ZM309.575 364.208C309.575 367.007 309.05 369.106 308 369.106C306.95 369.106 306.425 364.733 306.425 358.96C306.6 350.738 306.95 349.864 308 354.237C308.7 357.036 309.4 361.584 309.575 364.208ZM239.575 373.829L239.4 392.722L236.775 377.853C234.325 362.984 234.85 355.112 238 355.112C239.05 355.112 239.75 362.634 239.575 373.829ZM234.325 378.378C236.6 394.646 236.6 395.346 234.675 395.346C233.975 395.346 232.75 389.223 232.05 381.701C231.35 374.354 230.475 366.307 229.95 363.858C229.25 360.71 229.425 360.185 230.65 362.109C231.525 363.508 233.275 370.856 234.325 378.378ZM331.8 362.984C333.55 364.383 336.525 365.608 338.275 365.608C341.95 365.608 341.95 365.433 338.275 372.605C336.175 377.153 335.3 385.025 334.6 404.792C333.9 429.983 334.075 432.082 339.325 452.024C342.3 463.395 344.75 476.339 344.75 480.538C344.75 495.757 332.675 512.9 308.7 531.093C301.7 536.516 292.6 545.088 288.575 550.336C284.725 555.409 278.075 561.531 274.05 563.98C270.025 566.254 256.025 579.724 242.725 593.719C210.175 628.005 189.875 641.475 177.625 636.752C170.45 633.953 166.775 628.53 162.05 613.136C156.45 595.468 151.2 587.771 141.05 582.348C131.425 577.45 130.725 572.377 139.125 569.403C142.1 568.529 145.25 566.779 146.125 565.555C147.175 564.505 149.8 563.281 152.25 562.931C155.225 562.581 156.625 561.356 156.45 559.257C156.275 557.333 157.15 556.283 159.075 556.458C165.725 556.983 168 556.108 169.05 552.085C169.75 549.111 170.975 548.236 173.25 548.761C176.4 549.636 181.3 543.863 179.025 541.764C178.5 541.239 180.775 541.064 183.925 541.589C196 543.688 204.575 529.869 196 522.172C191.8 518.498 191.45 512.026 195.125 509.052C197.4 507.302 198.45 507.302 201.075 509.751C205.1 513.425 207.55 528.294 204.4 530.393C202.825 531.268 203 531.793 205.275 531.793C207.025 531.793 210.525 529.519 213.325 526.72C218.575 521.297 225.75 516.749 228.025 517.448C228.725 517.623 231 516.924 232.925 515.874C236.075 514.3 236.425 512.9 235.55 505.028C235.025 499.605 235.55 495.057 236.775 493.658C237.825 492.258 239.575 489.459 240.625 487.36C241.675 485.436 243.95 483.862 245.525 484.211C247.625 484.561 248.15 483.862 247.275 481.587C246.4 479.138 246.75 478.963 248.325 480.363C253.925 485.436 247.45 507.302 240.45 507.302C239.05 507.302 238 508.002 238 509.052C238 512.201 243.25 510.801 247.625 506.603C253.75 500.48 255.85 491.209 253.05 482.287C251.825 478.264 244.65 462.695 237.3 447.651C222.775 417.912 220.85 409.341 227.5 403.218C232.575 398.67 250.95 400.594 267.575 407.416C274.575 410.39 281.4 412.839 282.625 412.839C288.05 412.839 296.275 402.868 303.625 387.474C311.15 371.905 320.775 360.36 326.025 360.36C327.25 360.36 329.875 361.584 331.8 362.984ZM228.2 372.08C231.175 393.422 231.35 397.095 229.6 397.095C226.275 397.095 220.675 369.631 223.125 365.783C225.4 361.934 227.15 364.033 228.2 372.08ZM245.525 372.43C246.225 378.028 246.05 379.602 244.825 377.678C243.425 375.929 243.25 378.203 243.95 385.2C244.825 392.897 244.475 395.346 242.725 395.346C240.975 395.346 240.8 392.722 241.675 383.451C242.55 376.978 243.075 369.806 243.075 367.532C243.25 361.234 244.3 363.683 245.525 372.43ZM425.25 370.856C419.125 375.579 402.5 383.801 401.45 382.576C400.925 382.051 404.075 379.952 408.625 378.028C413 376.104 418.775 372.955 421.225 370.856C423.675 368.931 426.65 367.357 427.7 367.357C428.75 367.357 427.7 368.931 425.25 370.856ZM218.4 393.597C218.575 398.67 217.7 397.445 214.2 386.599C210 374.179 210 373.48 212.975 371.205C215.95 369.106 216.3 369.631 217.35 378.203C217.875 383.276 218.4 390.273 218.4 393.597ZM223.3 389.923C224.525 394.996 225.225 400.244 224.525 401.294C222.95 403.568 218.925 382.751 219.1 374.354L219.275 368.232L219.975 374.354C220.5 377.678 221.9 384.675 223.3 389.923ZM253.225 391.323C252.875 394.996 252.525 392.372 252.525 385.725C252.525 378.902 252.875 376.104 253.225 379.077C253.575 382.226 253.575 387.824 253.225 391.323ZM212.275 409.341C213.85 415.288 214.9 417.213 215.075 414.589C215.075 412.139 214.025 406.367 212.625 401.644C211.225 396.92 210 390.973 210.175 388.524C210.35 385.55 211.75 388.349 214.375 396.221C217.7 406.717 218.05 410.39 216.825 421.586C216.125 428.758 215.425 441.703 215.25 450.45C215.075 459.021 214.55 465.144 214.025 463.919C213.675 462.87 212.45 462.17 211.75 462.695C208.075 464.969 206.85 455.173 206.15 417.737C205.275 377.853 206.325 365.258 208.6 387.824C209.125 394.296 210.875 404.093 212.275 409.341ZM204.225 417.213C204.225 425.784 203.875 429.808 203.525 425.959C203.35 422.111 202.125 411.615 201.075 402.868C200.025 393.947 199.85 385.725 200.725 384.5C202.65 381.351 204.4 397.62 204.225 417.213ZM200.375 418.962C204.05 457.797 203.35 459.546 198.625 423.335C195.125 396.396 194.775 388.174 197.05 390.448C197.4 390.798 198.8 403.743 200.375 418.962ZM195.825 418.962C197.05 429.458 198.45 440.478 198.8 443.452C199.675 448.175 199.5 448.35 197.225 445.551C195.825 443.802 194.25 436.28 193.55 427.184C192.85 418.787 191.975 407.941 191.45 403.218C190.925 397.445 191.1 395.346 192.15 397.095C193.025 398.495 194.775 408.291 195.825 418.962ZM191.45 423.335C191.975 432.956 191.8 438.554 190.925 436.455C189 431.557 186.725 400.769 188.825 404.093C189.7 405.492 190.75 414.239 191.45 423.335ZM176.05 407.941C176.75 408.991 177.45 414.239 177.45 419.312L177.625 428.583H172.025C165.9 428.583 163.975 426.309 162.225 416.688C161.175 411.615 161.525 410.915 166.775 408.641C173.95 405.492 174.475 405.492 176.05 407.941ZM186.725 426.484L186.2 432.956L184.8 427.184C183.925 424.21 182.7 421.586 181.825 421.586C180.95 421.586 180.25 420.186 180.25 418.437C180.25 415.988 180.6 415.813 182 418.087C183.225 420.011 183.75 419.137 183.925 414.589L184.1 408.466L185.675 414.239C186.725 417.562 187.075 422.985 186.725 426.484ZM159.775 420.011C161.175 429.983 157.675 431.557 152.775 423.16C147.875 414.414 147.875 414.763 152.775 413.014C157.5 411.09 158.55 412.139 159.775 420.011ZM148.75 420.886C150.675 424.56 152.25 429.458 151.9 431.907C151.375 435.93 150.675 436.455 144.375 436.455C137.55 436.455 137.375 436.28 136.15 428.583C135.275 424.21 135.1 419.662 135.625 418.437C136.85 415.288 139.65 415.988 140.875 419.836C141.4 421.761 142.8 423.335 143.675 423.335C144.725 423.335 144.725 422.111 143.5 420.011C139.125 411.79 143.85 412.664 148.75 420.886ZM122.325 425.434C127.75 440.304 125.475 445.901 113.575 447.301L105.7 448.175L99.7501 439.254C96.6001 434.181 94.3251 429.983 94.6751 429.808C95.0251 429.633 98.0001 428.408 101.15 427.359C106.4 425.434 106.75 425.609 107.8 429.633C108.325 431.907 109.725 433.831 110.6 433.831C111.65 433.831 111.825 432.607 111.3 431.207C110.775 429.808 109.725 427.359 109.2 425.959C108.675 424.56 109.025 423.335 110.075 423.335C111.125 423.335 112 424.91 112 426.834C112 428.758 112.7 430.332 113.575 430.332C114.275 430.332 114.625 428.408 114.1 425.959C113.575 422.46 114.1 421.586 117.075 421.586C119.35 421.586 121.45 423.16 122.325 425.434ZM219.1 453.074L217.525 466.193L217.175 456.397C217.175 450.974 217.525 441.528 218.4 435.405C219.625 424.735 219.625 424.56 220.15 432.082C220.325 436.455 219.8 445.901 219.1 453.074ZM95.2001 438.029C100.625 448.875 100.275 450.275 91.5251 452.199C86.4501 453.248 85.7501 452.899 85.7501 449.75C85.7501 447.826 84.5251 442.928 82.9501 439.079C80.8501 433.831 80.5001 431.382 81.9001 429.983C83.3001 428.583 84.3501 429.283 85.7501 432.956C86.8001 435.58 88.0251 437.33 88.5501 436.805C89.0751 436.28 88.7251 434.356 87.6751 432.432C85.2251 427.708 85.2251 426.309 87.8501 427.184C89.0751 427.708 92.4001 432.432 95.2001 438.029ZM56.7001 433.656C58.2751 436.455 60.2001 441.703 61.0751 445.377C61.9501 449.225 63.1751 453.598 63.8751 455.173C64.7501 457.447 63.8751 458.846 60.5501 460.246C54.7751 462.87 52.6751 461.295 46.7251 448.875C41.4751 438.204 40.6001 430.332 44.6251 430.332C46.0251 430.332 47.2501 431.907 47.2501 433.656C47.2501 435.58 47.9501 437.68 49.0001 438.204C50.0501 438.904 50.2251 437.155 49.7001 433.831C48.1251 426.834 53.2001 426.659 56.7001 433.656ZM68.9501 435.23C70.0001 438.379 71.4001 440.478 72.1001 439.954C72.8001 439.254 72.6251 436.805 71.5751 434.356C69.4751 428.758 69.4751 428.758 73.5001 429.808C75.7751 430.507 77.7001 433.656 79.6251 439.954C83.1251 452.199 82.9501 453.074 78.0501 453.074C75.6001 453.074 73.1501 453.773 72.6251 454.823C70.1751 458.671 66.6751 456.222 65.4501 449.925C64.7501 446.426 63.1751 440.653 61.9501 436.98C60.7251 433.481 60.2001 430.157 60.9001 429.633C63.3501 427.184 67.2001 429.808 68.9501 435.23ZM39.3751 439.429C40.0751 442.578 42.5251 448.525 44.8001 452.549C47.0751 456.572 49.0001 460.246 49.0001 460.771C49.0001 462.345 37.8001 464.794 33.9501 463.919C31.1501 463.395 29.4001 460.771 27.3001 454.473C23.4501 442.403 23.6251 435.58 27.8251 435.58C30.4501 435.58 31.1501 437.33 32.0251 443.627C32.5501 448.875 34.3001 453.074 36.7501 455.523L40.6001 459.196L37.8001 453.598C34.8251 447.651 33.9501 433.831 36.5751 433.831C37.4501 433.831 38.6751 436.455 39.3751 439.429ZM227.675 456.222C228.55 469.867 228.725 471.092 228.9 462.17C229.075 455.348 229.95 451.324 231.175 451.324C232.75 451.324 232.925 455.173 232.05 464.794C231.525 472.141 231 482.287 231 487.535C231 495.932 230.65 496.807 228.375 494.532C226.975 492.958 224.875 491.559 223.825 491.209C222.075 490.684 222.075 489.11 223.65 484.561C226.1 477.914 226.45 457.272 224.35 455.872C223.475 455.348 222.775 461.12 222.6 468.468C222.425 475.815 221.55 484.211 220.675 487.185C218.75 492.608 219.1 478.789 221.55 448.175C223.125 430.157 226.275 434.531 227.675 456.222ZM235.375 488.41C232.575 493.483 232.225 490.684 233.8 473.716L235.375 457.447L236.25 471.441C236.775 479.138 236.425 486.835 235.375 488.41ZM244.825 478.264C244.825 481.937 244.65 481.937 243.25 478.439C242.025 475.465 241.675 475.465 241.675 477.914C241.325 484.561 238 480.713 238 473.716V466.543L241.5 470.567C243.425 472.841 245 476.165 244.825 478.264ZM217 483.162C217 489.11 216.65 493.483 216.3 493.133C214.9 491.384 214.025 470.567 215.425 471.616C216.3 472.141 217 477.389 217 483.162ZM212.8 493.483C212.1 499.256 212.1 503.804 212.975 503.279C213.675 502.754 214.025 507.477 213.85 513.6C213.325 521.822 212.625 524.796 210.7 524.796C209.125 524.796 208.25 522.871 208.25 518.848C208.25 515.524 207.55 512.201 206.5 511.676C205.625 511.151 204.75 507.128 204.75 502.929C204.75 493.308 208.075 490.509 208.425 499.78C208.775 506.603 209.125 505.378 211.05 490.159C211.575 486.136 212.45 482.812 212.975 482.812C213.5 482.812 213.325 487.535 212.8 493.483ZM229.075 500.13C233.975 506.778 233.8 512.201 228.9 514.125C221.55 516.749 217.875 513.95 217.7 505.378C217.525 501.18 217.875 497.156 218.225 496.282C219.975 493.308 225.75 495.407 229.075 500.13ZM194.25 504.678C194.25 505.203 192.325 507.827 189.875 510.451C185.5 515.174 185.5 515.174 185.5 511.151C185.5 508.877 186.2 507.652 187.25 508.177C188.3 508.702 189.525 508.002 190.05 506.603C191.1 503.979 194.25 502.579 194.25 504.678ZM196 530.393C196 533.892 189.7 538.79 185.15 538.79C182.525 538.79 182 537.216 182 529.519C182 516.749 184.975 514.125 191.1 521.647C193.725 524.796 196 528.819 196 530.393ZM166.25 520.247C166.25 521.472 164.675 523.046 162.925 523.571C161 523.921 159.25 526.195 158.725 528.469C158.025 531.968 158.025 531.793 157.675 527.42C157.5 522.347 158.025 521.822 165.9 517.973C166.075 517.973 166.25 518.848 166.25 520.247ZM175.525 531.093C177.45 546.837 175.175 549.636 167.125 541.064C164.675 538.44 162.75 534.767 162.75 533.017C162.75 528.994 169.925 519.373 172.375 520.072C173.25 520.422 174.65 525.32 175.525 531.093ZM155.225 529.169C154.525 530.568 153.125 531.618 152.075 531.443C150.85 531.093 148.925 532.842 147.525 535.292L145.25 539.665V534.942C145.25 531.443 146.65 529.519 150.15 527.595C155.4 524.796 156.625 525.145 155.225 529.169ZM161.7 540.714C167.65 547.712 167.65 552.785 162.05 552.785C157.675 552.785 148.75 544.038 148.75 539.84C148.75 533.367 155.925 533.892 161.7 540.714ZM142.1 539.14C145.425 541.764 154 555.409 154 558.033C154 558.907 152.075 559.782 149.8 559.782C147.525 559.782 144.725 561.007 143.5 562.406C140 566.604 138.425 565.03 133.875 553.834C130.725 546.137 130.2 542.639 131.425 540.19C133.35 536.516 138.075 535.991 142.1 539.14ZM134.75 564.68C134.75 569.753 130.2 565.205 127.225 557.333C123.025 545.787 125.65 542.989 130.725 553.659C132.825 558.557 134.75 563.456 134.75 564.68Z" fill="#292F36"/>
<path d="M312.725 13.4697C312.2 14.3444 319.2 14.5193 328.125 14.3444C339.15 13.8196 347.375 14.5193 353.325 16.2686C358.225 17.6681 362.25 18.1929 362.25 17.3182C362.25 14.5193 348.775 12.2452 331.275 12.2452C321.475 12.2452 313.075 12.77 312.725 13.4697Z" fill="#292F36"/>
<path d="M165.375 25.3651C156.8 28.339 144.9 33.412 139.125 36.2109C128.275 41.8087 112 54.9286 112 58.0774C112 59.127 115.85 56.3281 120.575 51.9548C130.9 42.3335 147.525 33.7619 169.225 26.9395C178.15 24.1406 185.5 21.3417 185.5 20.467C185.5 18.5428 182.175 19.2425 165.375 25.3651Z" fill="#292F36"/>
<path d="M301 20.467C301 21.3417 312.375 21.8665 326.2 21.8665C340.025 21.8665 351.05 21.3417 350.525 20.467C350.175 19.7673 338.8 19.2425 325.325 19.2425C312.025 19.2425 301 19.7673 301 20.467Z" fill="#292F36"/>
<path d="M319.025 27.4643C302.4 28.6888 309.225 30.788 329 30.788C339.5 30.6131 348.25 30.0883 348.25 29.5635C348.25 28.164 336.525 26.2398 331.625 26.5897C329.7 26.7646 323.925 27.1145 319.025 27.4643Z" fill="#292F36"/>
<path d="M141.925 47.2316C130.2 53.1793 120.75 58.6022 120.75 59.3019C120.75 60.1765 129.85 56.1531 140.875 50.5553C152.075 44.7825 162.225 40.2343 163.625 40.2343C165.025 40.2343 166.25 39.3597 166.25 38.485C166.25 35.5112 163.625 36.3858 141.925 47.2316Z" fill="#292F36"/>
<path d="M317.975 37.9602C317.45 38.8349 323.225 39.3597 330.925 39.3597C338.45 39.3597 344.75 38.8349 344.75 37.9602C344.75 37.2605 338.975 36.7357 331.8 36.7357C324.625 36.7357 318.325 37.2605 317.975 37.9602Z" fill="#292F36"/>
<path d="M147.525 50.3804C131.425 58.9521 125.3 62.8006 126.7 64.2C127.05 64.5499 130.025 63.1504 133.35 60.8763C136.5 58.6022 145.25 54.054 152.6 50.7303C160.125 47.4066 166.075 44.0829 166.25 43.2082C166.25 40.9341 163.975 41.8088 147.525 50.3804Z" fill="#292F36"/>
<path d="M320.25 47.0567C320.25 47.9314 324.625 48.4562 329.875 48.2812C342.475 48.1063 342.475 45.4823 329.875 45.4823C324.625 45.4823 320.25 46.1821 320.25 47.0567Z" fill="#292F36"/>
<path d="M426.3 52.1297C425.775 53.0043 428.575 54.9286 432.25 56.6779C436.1 58.2523 446.95 67.3488 456.75 76.7951C466.375 86.2414 474.25 92.8888 474.25 91.6643C474.25 90.4398 466.725 82.5678 457.625 73.9962C441.175 58.4272 428.05 49.3308 426.3 52.1297Z" fill="#292F36"/>
<path d="M143.85 61.4011C135.975 66.1242 129.5 71.0223 129.5 71.897C129.5 72.7716 132.825 71.3722 137.025 68.5733C141.05 65.7744 147.7 61.7509 151.9 59.4768C155.925 57.2027 159.25 54.7537 159.25 53.879C159.25 51.7798 159.425 51.7798 143.85 61.4011Z" fill="#292F36"/>
<path d="M325.15 55.4534C322.35 55.8033 320.25 57.0278 320.25 58.0774C320.25 58.952 321.475 59.3019 323.05 58.7771C324.625 58.2523 328.825 57.7275 332.675 57.7275C336.35 57.7275 339.5 56.8529 339.5 55.9782C339.5 54.2289 334.425 54.0539 325.15 55.4534Z" fill="#292F36"/>
<path d="M332.15 62.4507C326.025 63.1504 322.525 66.4741 327.95 66.4741C333.025 66.4741 341.25 64.2 341.25 62.8006C341.25 61.9259 340.725 61.4011 340.025 61.576C339.15 61.751 335.65 62.1008 332.15 62.4507Z" fill="#292F36"/>
<path d="M143.675 70.1477C137.9 73.9962 133 78.0196 133 78.8943C133 79.7689 137.9 77.3199 144.025 73.2964C157.15 64.3749 156.45 64.8997 155.4 63.8501C154.875 63.3253 149.625 66.1242 143.675 70.1477Z" fill="#292F36"/>
<path d="M447.65 82.9177C455.35 89.2153 463.225 96.3875 465.15 99.1864C467.6 102.335 468.825 103.21 469 101.461C469 98.3117 460.425 89.7401 446.6 78.8943C431.375 67.3488 432.425 70.6725 447.65 82.9177Z" fill="#292F36"/>
<path d="M141.4 79.594C136.675 83.0926 133 86.5912 133 87.6408C133 88.6904 136.5 86.5912 140.7 83.2675C144.725 79.7689 149.1 76.97 150.15 76.97C151.2 76.97 152.6 76.0953 153.125 75.2207C155.4 71.5471 149.275 73.8212 141.4 79.594Z" fill="#292F36"/>
<path d="M142.625 87.9907C139.3 91.3144 136.5 94.988 136.5 96.0376C136.5 97.0872 139.65 94.813 143.675 90.7896C147.525 86.9411 150.325 83.2675 149.8 82.7427C149.275 82.2179 146.125 84.4921 142.625 87.9907Z" fill="#292F36"/>
<path d="M143.5 97.0872C140.35 100.411 138.075 103.56 138.6 104.084C139.475 104.959 152.25 93.2387 152.25 91.6643C152.25 89.5651 148.75 91.6643 143.5 97.0872Z" fill="#292F36"/>
<path d="M446.25 93.5886C446.25 93.9384 449.925 96.9123 454.65 100.061C459.2 103.21 466.2 108.808 470.4 112.481C474.425 116.33 477.75 118.604 477.75 117.554C477.75 115.455 466.9 105.484 456.4 98.3117C448.525 92.8888 446.25 91.8393 446.25 93.5886Z" fill="#292F36"/>
<path d="M146.3 103.035C143.5 105.834 141.575 108.983 141.925 110.032C142.275 111.082 144.9 109.158 147.525 105.659C153.825 97.9619 152.775 96.2126 146.3 103.035Z" fill="#292F36"/>
<path d="M372.925 100.761C374.325 104.609 387.975 115.28 392.875 116.505C395.85 117.204 400.4 119.478 403.025 121.403C408.625 125.426 408.625 125.951 401.8 144.319C399.35 150.966 397.25 159.188 397.25 162.337C397.25 174.757 388.85 182.104 378.35 179.305C370.125 177.031 354.9 177.906 353.15 180.705C351.925 182.979 350.875 182.979 344.4 180.705C339.675 179.13 333.025 178.43 326.375 178.955C314.65 179.83 283.5 187.352 283.5 189.276C283.5 190.851 291.55 189.451 306.425 185.253C320.6 181.229 336.875 181.054 345.8 184.728C352.1 187.352 352.625 187.352 354.725 184.378C357.35 180.88 365.225 180.355 380.8 182.804C389.375 184.028 389.725 184.028 394.8 178.081L399.875 171.958L412.825 173.357C419.825 174.057 425.95 175.107 426.475 175.632C426.825 175.981 427.875 180.88 428.75 186.652C429.8 193.999 429.45 199.247 427.525 205.895C424.025 218.49 418.775 222.513 401.975 225.312C394.625 226.537 388.5 228.286 388.5 228.986C388.5 231.26 414.225 226.362 419.125 223.213C421.75 221.464 425.075 220.589 426.65 221.289C428.925 222.338 427.7 223.388 421.925 225.837C417.725 227.761 414.575 229.686 415.1 230.035C415.625 230.56 419.475 229.336 423.675 227.411C432.425 223.563 436.275 223.038 435.4 226.012C435.05 227.062 430.85 229.161 426.3 230.385C416.325 233.359 416.675 234.933 426.825 233.359C434.175 232.135 438.2 229.686 439.6 225.312C440.3 223.563 441.35 223.563 445.2 225.312C449.575 227.236 450.1 228.286 449.05 233.009C448 238.432 443.45 244.905 441 244.905C437.85 244.905 426.3 250.677 428.225 251.377C429.45 251.727 433.825 250.677 438.025 248.753L445.9 245.254L445.025 252.602C444.325 257.325 442.75 260.823 439.95 262.923C434 267.471 434.7 270.445 440.65 266.246L445.375 262.748L450.975 267.646C457.45 273.419 471.1 275.868 484.225 273.593C492.275 272.194 491.75 272.019 476 271.144C466.9 270.445 457.975 269.395 456.225 268.52C452.55 266.946 449.225 261.173 450.625 258.899C451.15 257.85 450.8 257.15 449.925 257.15C447.125 257.15 447.65 248.403 450.8 238.957C455 226.537 452.725 222.863 440.125 221.814C427 220.764 425.95 219.365 429.625 208.169C431.9 201.347 432.25 196.448 431.375 187.352C430.675 180.88 429.625 174.582 428.75 173.183C427.875 171.958 422.45 170.559 414.925 170.034C407.925 169.684 401.8 168.284 400.575 166.885C398.3 164.086 402.325 147.118 407.925 136.272C410.025 132.074 411.075 127.35 410.55 125.251C409.5 121.053 400.575 114.93 393.05 113.006C390.25 112.306 384.475 108.808 380.1 105.309C375.725 101.81 372.575 99.7112 372.925 100.761Z" fill="#292F36"/>
<path d="M454.125 108.983C457.1 111.082 463.4 116.505 468.3 121.053C477.05 129.275 479.5 130.849 479.5 128.05C479.5 125.951 453.775 104.959 451.325 104.959C449.925 104.959 451.325 106.883 454.125 108.983Z" fill="#292F36"/>
<path d="M88.55 112.131C87.15 116.33 84 128.575 84 129.799C84 130.674 84.7 131.199 85.4 131.199C86.975 131.199 91.35 111.781 90.125 110.557C89.775 110.032 88.9 110.732 88.55 112.131Z" fill="#292F36"/>
<path d="M455 121.403C455 121.753 459.2 125.251 464.275 129.1C469.175 132.948 475.125 137.671 477.225 139.771C481.425 143.794 483 144.319 483 141.695C483 140.82 477.225 135.747 470.225 130.324C458.5 121.578 455 119.478 455 121.403Z" fill="#292F36"/>
<path d="M210 129.45C208.075 130.674 209.65 131.199 215.775 131.199C220.325 131.199 224 130.324 224 129.45C224 127.175 213.5 127.175 210 129.45Z" fill="#292F36"/>
<path d="M196 133.998C192.675 135.397 183.75 140.645 176.225 145.543C166.425 152.016 162.4 155.689 161.7 159.013C160.475 165.311 152.25 181.929 150.325 181.929C148.925 181.929 149.625 191.9 151.375 197.148C151.725 198.373 154.525 199.422 157.5 199.422C160.65 199.422 162.575 198.723 161.875 197.673C161.35 196.623 159.25 195.924 157.325 195.924C155.4 195.924 154 194.699 154 193.125C154 191.55 155.05 190.676 156.275 191.201C157.675 191.725 159.775 191.375 161.175 190.501C162.925 189.451 161.875 188.926 158.025 188.926C148.925 188.926 151.375 185.428 160.65 185.078L168.875 184.903L161.525 184.203C157.325 183.853 154 182.804 154 181.929C154 180.88 159.425 180.705 167.125 181.404C176.4 182.104 180.25 181.929 180.25 180.355C180.25 179.13 176.225 178.431 168.7 178.431C160.825 178.431 157.5 177.731 157.85 176.331C158.375 175.107 163.1 174.582 171.85 174.757C180.25 174.932 185.675 174.407 186.375 173.183C187.25 171.783 185.5 171.433 179.725 172.308C175.35 173.008 169.4 173.008 166.6 172.308C161.875 171.433 161.525 170.734 162.75 166.535C163.45 163.911 165.025 161.987 166.425 162.337C170.1 163.211 197.75 160.587 197.75 159.363C197.75 158.838 190.05 158.663 180.775 158.838C167.3 159.363 164.15 159.013 165.725 157.439C166.95 156.039 174.3 154.99 184.625 154.815C194.075 154.465 202.475 153.415 203.35 152.541C204.4 151.491 199.15 151.141 188.65 151.666L172.375 152.366L177.625 147.992C183.225 143.094 185.5 142.395 185.5 145.193C185.5 146.243 191.275 146.943 199.5 146.943C208.075 146.943 213.5 146.243 213.5 145.193C213.5 143.969 210 143.619 203.525 144.319C197.925 145.019 191.45 144.669 189 143.794L184.625 142.22L190.225 139.421C193.9 137.322 198.1 136.797 204.05 137.496C208.775 138.021 214.55 137.671 217 136.622C220.675 135.222 219.8 134.872 210.875 134.698C203.35 134.698 201.075 134.173 203 132.948C207.025 130.324 203 131.024 196 133.998Z" fill="#292F36"/>
<path d="M83.1251 140.295C82.6001 144.494 81.5501 150.616 81.0251 153.94C79.2751 164.436 81.9001 158.838 84.5251 146.418C85.9251 139.946 86.2751 134.173 85.5751 133.823C84.8751 133.298 83.8251 136.272 83.1251 140.295Z" fill="#292F36"/>
<path d="M74.55 161.987C73.675 171.783 73.85 177.731 75.075 178.955C76.3 180.18 77.175 179.655 78.05 177.381C78.575 175.632 79.8 172.483 80.675 170.559C82.075 167.41 82.25 167.41 81.2 170.908C80.675 173.183 80.85 174.932 81.725 174.932C82.425 174.932 84.525 170.384 86.1 164.961C89.25 154.115 88.9001 149.567 85.575 159.013C84.525 162.162 82.6 164.261 81.55 163.911C80.325 163.386 79.275 164.611 79.275 166.71C79.1 168.634 78.225 170.908 77.35 171.783C76.475 172.658 76.125 168.11 76.65 160.238C77 152.89 77 146.943 76.65 146.943C76.125 146.943 75.25 153.765 74.55 161.987Z" fill="#292F36"/>
<path d="M463.75 149.217C463.75 150.791 483.525 164.611 485.1 164.086C485.975 163.736 482.65 160.587 477.4 157.264C466.55 149.917 463.75 148.167 463.75 149.217Z" fill="#292F36"/>
<path d="M92.225 160.937C88.025 170.908 87.15 174.932 89.075 174.932C90.125 174.932 91 173.707 91 172.308C91 170.734 92.225 167.06 93.8 164.261C95.2 161.287 96.075 157.963 95.725 156.914C95.2 155.689 93.8 157.614 92.225 160.937Z" fill="#292F36"/>
<path d="M465.5 157.089C465.5 157.963 467.425 159.538 469.7 160.587C472.15 161.637 477.225 165.486 481.25 168.984C485.1 172.483 488.775 175.107 489.3 174.582C490.525 173.357 477.225 161.637 470.925 158.313C467.95 156.914 465.5 156.214 465.5 157.089Z" fill="#292F36"/>
<path d="M164.5 166.185C164.5 167.235 169.75 167.935 176.575 167.935C183.4 167.935 189.35 167.06 189.875 166.185C190.575 165.136 186.025 164.436 177.8 164.436C170.1 164.436 164.5 165.136 164.5 166.185Z" fill="#292F36"/>
<path d="M470.75 171.258C470.75 172.133 472.5 173.183 474.775 173.882C477.05 174.407 482.475 178.081 487.025 181.929C491.4 185.778 495.425 188.227 495.95 187.352C497 185.778 490.35 180.18 479.325 173.532C472.325 169.334 470.75 168.809 470.75 171.258Z" fill="#292F36"/>
<path d="M268.625 175.981C264.775 178.256 260.925 180.355 259.875 180.705C259 181.229 258.65 181.929 259.175 182.629C259.7 183.154 264.25 181.404 269.325 178.605C274.4 175.807 277.9 173.183 277.2 172.833C276.325 172.308 272.475 173.882 268.625 175.981Z" fill="#292F36"/>
<path d="M123.55 179.83C123.025 180.705 126.175 182.804 130.55 184.553L138.6 187.702L137.55 196.099C136.85 201.522 137.025 204.67 138.25 204.67C139.125 204.67 140 203.271 140 201.522C140 199.947 140.525 195.749 141.05 192.075C142.1 186.302 141.75 185.428 137.2 183.154C129.5 179.305 124.6 178.081 123.55 179.83Z" fill="#292F36"/>
<path d="M476 185.253C476 185.953 478.1 187.527 480.725 188.752C483.35 189.976 488.425 193.3 491.925 196.099C495.6 198.898 498.925 200.647 499.275 199.947C499.8 199.072 496.125 195.749 491.225 192.25C481.25 185.428 476 182.979 476 185.253Z" fill="#292F36"/>
<path d="M254.625 192.425L244.125 195.749V206.42C244.125 217.965 244.3 217.965 227.5 230.56C223.3 233.884 222.25 235.983 222.25 241.581C222.25 248.228 222.425 248.403 228.375 248.403C233.975 248.403 237.475 245.08 232.4 244.73C231.175 244.555 232.05 243.855 234.5 243.155C238.35 241.931 238.175 241.756 232.4 241.581C223.65 241.406 224 238.782 233.275 236.508L240.625 234.584L233.8 235.283C229.775 235.808 227.5 235.458 228.55 234.409C229.425 233.534 233.275 232.659 237.125 232.31C241.15 231.96 243.95 230.91 243.775 229.861C243.6 228.636 245.7 227.411 248.5 226.712C251.475 226.187 253.75 224.962 253.75 224.088C253.75 223.038 250.6 223.388 246.575 224.787C237.125 228.111 236.25 227.936 241.325 223.913C243.6 221.989 247.1 220.414 249.2 220.414C251.3 220.414 254.625 219.19 256.55 217.615C259.7 215.166 259.7 214.991 255.5 216.041C253.05 216.741 249.725 217.615 247.8 218.14C245.7 218.665 244.825 218.315 245.35 216.741C245.875 215.341 249.025 213.767 252.525 213.242C256.2 212.717 259.7 211.668 260.4 210.793C261.1 210.093 258.3 209.918 254.275 210.618C250.075 211.143 246.75 210.968 246.75 210.093C246.75 209.393 250.075 208.169 253.925 207.644C260.575 206.77 269.85 201.172 264.775 201.172C263.55 201.172 262.15 201.871 261.625 202.921C261.1 203.796 257.425 204.67 253.575 204.67C247.975 204.67 246.75 203.971 246.75 201.347C246.75 198.723 249.025 197.148 256.025 195.049C260.925 193.3 265.825 191.375 266.875 190.501C269.15 188.227 266.525 188.577 254.625 192.425Z" fill="#292F36"/>
<path d="M259 197.148C255.675 197.673 252.175 198.723 251.125 199.772C248.85 201.871 266.175 199.772 268.625 197.498C269.5 196.449 269.15 196.099 267.75 196.274C266.35 196.274 262.325 196.798 259 197.148Z" fill="#292F36"/>
<path d="M479.5 197.498C479.5 198.373 481.775 199.947 484.575 201.172C487.375 202.221 491.4 205.02 493.675 207.469C497.7 211.668 500.5 212.892 500.5 210.093C500.5 208.694 482.3 195.924 480.375 195.924C479.85 195.924 479.5 196.623 479.5 197.498Z" fill="#292F36"/>
<path d="M64.75 200.647C64.75 201.521 66.325 204.67 68.25 207.819C70.525 211.493 71.75 216.566 71.75 222.338C71.75 232.484 75.425 242.106 81.55 248.753C84 251.202 86.275 255.575 86.45 258.374C86.8 260.998 87.5 265.547 88.2 268.52C89.425 273.593 89.25 273.418 85.925 267.296C83.825 263.797 81.375 260.299 80.5 259.774C77.525 258.024 73.5 262.398 73.5 267.296C73.5 269.745 71.75 273.593 69.65 275.868C65.8 280.066 65.8 280.241 68.775 285.314C70.35 288.288 71.75 292.136 71.75 293.711C71.75 300.183 78.4 303.507 91 303.332C105.525 303.157 114.275 298.609 117.25 289.512C118.3 286.188 121.275 281.815 123.725 279.891C128.275 276.392 128.275 276.567 132.475 242.98C133.35 235.808 132.825 234.409 127.75 228.461C118.475 217.965 108.85 213.417 94.15 212.367C75.775 210.968 73.85 210.443 70.875 204.67C68.425 199.947 64.75 197.498 64.75 200.647ZM91.525 219.015C93.975 221.289 98 224.438 100.625 226.362C105.7 229.86 105.7 230.735 100.45 245.429C97.65 253.476 97.65 254.176 101.5 265.547C103.775 272.019 106.05 280.416 106.75 284.264L107.975 291.262L108.325 284.264C108.325 280.416 106.75 272.369 104.65 266.421C101.15 256.625 100.975 254.876 103.075 248.053C104.3 243.855 105.7 237.557 106.225 234.059C107.1 228.111 106.575 227.236 99.925 222.688C92.225 217.265 90.3 213.767 97.125 217.265C102.725 220.239 110.25 230.56 110.25 235.458C110.25 237.557 109.025 242.281 107.45 245.954C103.775 254.526 105.175 265.197 111.3 275.518C113.925 280.066 115.325 284.614 114.8 286.538C113.225 291.262 106.575 296.859 101.15 298.259C96.25 299.483 96.25 299.483 95.9 290.212L95.55 280.766L95.025 289.862C94.325 297.909 93.8 299.308 90.125 300.183C80.15 302.632 78.05 296.16 83.825 281.815C86.8 274.293 87.15 274.118 89.075 277.792C90.3 279.891 90.825 282.34 90.3 283.215C88.55 286.014 86.1 299.133 87.5 298.259C90.825 296.16 93.1 278.142 91.175 269.22C90.125 264.497 89.25 258.374 89.25 255.575C89.25 252.602 87.5 249.103 84.7 246.479C79.275 241.581 75.25 234.059 75.25 229.685C75.425 227.936 76.475 229.511 77.7 233.009C78.925 236.508 82.425 241.406 85.225 243.855C88.2 246.479 91 250.852 91.7 254.001C92.225 257.15 93.975 263.622 95.375 268.52L98 277.267L97.125 269.395C95.2 252.427 94.15 249.278 86.975 241.931C80.85 235.458 79.8 233.359 79.1 224.787C78.4 215.341 78.4 215.166 82.775 215.166C85.225 215.166 89.25 216.915 91.525 219.015ZM110.775 222.513C115.675 229.161 116.9 237.557 114.275 246.654C112.35 252.776 112.35 256.625 113.925 264.147C114.975 269.395 116.725 274.643 117.6 275.868C118.475 277.092 118.65 278.841 117.95 280.066C116.375 282.865 108.675 264.847 108.5 257.675C108.5 254.526 109.725 248.928 111.3 245.079C114.45 237.033 112.7 228.461 106.75 223.038C104.825 221.289 103.25 219.19 103.25 218.315C103.25 215.516 107.275 217.79 110.775 222.513ZM119.7 229.161C121.8 234.584 122.15 237.907 120.75 245.254C119 254.176 119.875 264.147 122.675 269.395C123.375 270.794 123.725 267.821 123.2 262.398C122.675 257.15 123.025 248.403 123.9 243.155C125.65 233.709 125.65 233.534 126 240.531L126.525 247.529L127.75 241.406C128.8 236.683 128.975 237.208 128.275 244.03C126.7 262.398 124.775 273.069 122.85 274.993C119.875 277.967 119.175 276.392 116.9 264.322C115.325 256.1 115.325 252.077 116.9 247.703C119.7 240.181 119.525 235.633 116.55 228.286C115.15 224.962 114.625 222.163 115.325 222.163C116.2 222.163 118.125 225.312 119.7 229.161ZM78.75 271.319C77.35 273.768 77.35 275.693 78.4 276.742C79.625 277.967 80.5 277.267 81.375 274.818C81.9 272.719 83.125 271.144 83.825 271.144C84.525 271.144 83.825 275.343 82.075 280.241C80.325 285.314 78.925 291.262 78.75 293.536C78.75 295.81 78.05 297.034 77 296.509C74.725 295.11 74.725 287.588 77.175 283.04C78.575 280.591 78.575 279.016 77.175 277.617C75.775 276.217 75.25 276.917 75.25 280.416C75.25 283.04 74.55 285.139 73.5 285.139C71.05 285.139 71.4 280.941 74.2 275.168C75.6 272.544 77.35 268.695 78.05 266.771C78.75 264.672 79.45 264.147 79.975 265.372C80.325 266.596 79.8 269.22 78.75 271.319Z" fill="#292F36"/>
<path d="M81.7251 219.889C79.8001 223.038 83.4751 235.108 87.5001 238.782C91.7001 242.631 92.2251 240.356 88.0251 235.808C86.4501 234.059 84.7001 229.161 84.0001 225.137C83.4751 220.589 82.6001 218.665 81.7251 219.889Z" fill="#292F36"/>
<path d="M87.5 225.662C87.5 228.461 92.925 238.432 93.8 237.383C94.15 237.033 93.275 233.884 91.875 230.385C89.25 223.913 87.5 222.163 87.5 225.662Z" fill="#292F36"/>
<path d="M84.3502 287.763C81.5502 298.084 81.9002 301.757 84.7002 293.886C88.9002 282.69 89.4252 279.891 88.0252 279.891C87.1502 279.891 85.5752 283.39 84.3502 287.763Z" fill="#292F36"/>
<path d="M101.5 288.113C101.5 294.235 102.025 295.81 103.25 293.886C105.525 290.387 105.525 279.891 103.25 279.891C102.375 279.891 101.5 283.565 101.5 288.113Z" fill="#292F36"/>
<path d="M483 209.568C483 210.443 484.925 212.017 487.2 213.067C489.475 214.117 494.2 217.44 497.7 220.414C501.2 223.563 504 225.137 504 224.088C504 221.989 487.2 208.169 484.575 208.169C483.7 208.169 483 208.869 483 209.568Z" fill="#292F36"/>
<path d="M142.625 213.417C142.1 214.292 144.55 216.391 148.225 218.14C158.2 222.863 161.35 230.385 159.95 246.654C159.075 257.5 159.6 261.523 162.75 269.745C166.95 280.941 176.575 290.912 182.7 290.037C184.625 289.862 187.425 290.387 188.825 291.262C190.575 292.136 191.625 291.961 192.15 290.737C193.2 287.238 213.325 288.288 224 292.311C230.475 294.76 239.4 296.16 252 296.859C274.05 297.909 281.75 295.635 299.25 282.34C312.025 272.719 323.4 266.771 333.025 265.022C341.95 263.272 343.525 260.124 334.775 261.523C326.025 262.923 305.2 273.069 296.45 280.066C284.375 289.687 276.675 292.661 262.5 293.186L249.375 293.711L259.875 292.136C275.975 289.512 280.175 287.588 301.35 273.419C312.2 266.246 323.05 259.599 325.325 258.724C327.6 257.85 329 256.625 328.475 256.1C327.25 254.876 314.65 261.873 302.75 270.095C290.675 278.667 288.925 279.191 297.5 271.319C301.875 267.471 312.2 260.823 320.425 256.45C328.825 251.902 336.7 247.004 337.925 245.429C340.025 242.805 340.025 242.631 337.75 244.03C336.35 244.905 332.325 245.954 328.65 246.129C319.55 246.829 303.45 253.126 296.975 258.724C288.225 266.071 279.475 270.62 261.975 276.742C249.025 281.116 242.9 282.165 230.65 282.34C222.075 282.515 215.25 283.04 215.25 283.565C215.25 284.264 210.7 284.614 205.275 284.439C192.675 284.264 182.35 278.667 170.8 265.722C163.275 257.325 159.6 250.677 165.025 255.226C166.775 256.625 168 256.45 169.4 255.051C170.8 253.651 173.95 255.401 181.475 261.698C187.075 266.246 193.025 271.319 194.775 272.719C196.35 274.118 197.75 274.468 197.575 273.593C197.575 272.719 189.7 266.071 180.25 258.899C170.8 251.727 162.925 245.08 162.925 244.38C162.75 241.756 167.65 237.732 168.875 239.657C169.4 240.531 169.05 241.406 167.825 241.406C166.6 241.406 166.95 242.805 169.05 245.08C173.775 250.153 189 261.173 190.05 260.124C190.575 259.774 187.075 256.45 182.35 252.952C177.625 249.453 172.55 245.429 171.325 243.68C169.05 241.056 169.225 241.056 173.075 242.98C176.225 244.73 176.925 244.73 175.875 243.155C175 241.756 175.35 241.231 176.925 241.756C178.325 242.281 179.2 243.33 179.025 244.205C178.85 245.08 180.95 245.954 183.4 245.954L188.125 246.304L183.75 243.33C181.475 241.756 175 236.683 169.4 232.135C161.35 225.487 159.6 223.388 161.35 221.464C163.975 218.665 174.825 220.239 186.2 225.312C194.775 229.161 197.925 229.511 193.9 226.012C189 221.989 172.725 216.916 164.85 216.916C160.3 216.916 154.35 215.691 151.55 214.292C145.775 211.143 144.025 210.968 142.625 213.417ZM169.925 235.633L175.875 242.106L169.75 238.257C166.425 236.333 163.45 233.359 163.1 231.785C162.225 227.936 163.1 228.461 169.925 235.633ZM327.775 250.153C324.625 252.077 317.975 255.575 312.9 258.199C307.825 260.649 299.95 265.896 295.4 269.57C290.85 273.419 284.025 277.617 280.175 279.016C267.925 283.215 244.125 286.888 229.95 286.713L216.125 286.364L232.75 285.139C256.375 283.215 281.05 274.293 297.325 261.873C302.4 257.85 311.85 252.952 318.325 250.677C332.675 245.779 334.95 245.604 327.775 250.153ZM177.45 276.742C176.925 277.617 179.725 279.716 183.75 281.465C189.875 284.089 190.4 284.789 187.425 285.664C185.325 286.189 183.225 285.839 182.7 284.964C182.175 284.089 180.95 283.74 180.075 284.439C177.975 285.664 171.15 280.066 172.375 277.967C172.9 277.267 171.675 275.518 169.75 274.118C167.825 272.719 165.9 269.92 165.375 267.821C165.025 265.896 164.15 263.098 163.45 261.873C162.75 260.823 165.9 263.272 170.275 267.471C174.65 271.669 177.975 275.868 177.45 276.742ZM289.625 279.541C285.25 283.39 268.625 288.813 258.65 289.512C252.525 290.037 243.775 290.912 239.05 291.262C223.825 292.661 232.05 290.037 253.225 286.888C264.6 285.139 277.025 282.515 280.875 281.116C288.925 277.967 291.9 277.442 289.625 279.541Z" fill="#292F36"/>
<path d="M486.5 223.563C488.775 225.137 493.5 228.811 496.825 231.785C500.15 234.584 502.425 235.808 501.9 234.409C500.85 231.26 487.025 220.414 484.225 220.589C483 220.589 484.05 221.989 486.5 223.563Z" fill="#292F36"/>
<path d="M166.25 225.662C170.975 229.861 186.025 237.907 189 237.907C189.875 237.907 190.75 237.033 190.75 236.158C190.75 235.108 189.525 234.409 187.95 234.409C186.375 234.409 179.9 231.61 173.6 228.111C165.55 223.913 163.275 223.038 166.25 225.662Z" fill="#292F36"/>
<path d="M309.225 230.035C296.975 234.584 291.375 238.082 280.7 247.354C273.525 253.651 265.475 259.424 262.85 259.949C260.225 260.474 255.85 261.698 253.225 262.398C250.6 263.272 247.275 263.622 245.875 263.097C244.475 262.398 243.25 262.923 243.25 263.972C243.25 266.596 249.375 266.421 259.35 263.447C270.9 259.774 274.4 257.85 285.425 247.529C292.6 240.881 299.425 236.858 309.925 232.659C323.575 227.236 330.225 223.738 326.375 224.088C325.325 224.088 317.8 226.712 309.225 230.035Z" fill="#292F36"/>
<path d="M484.75 228.111C484.75 229.686 499.625 242.98 500.325 242.106C501.375 241.056 491.75 231.085 487.9 228.986C486.15 228.111 484.75 227.761 484.75 228.111Z" fill="#292F36"/>
<path d="M316.4 237.732C303.8 241.931 299.25 244.38 291.025 251.902C273.525 267.821 266.7 270.795 231 276.917C228.2 277.442 229.075 277.792 233.625 277.792C237.475 277.967 247.1 276.567 254.975 274.818C270.55 271.319 282.1 265.022 292.25 254.526C299.425 247.004 306.075 243.33 322.525 238.082C329 235.808 334.25 233.709 334.25 233.359C334.25 232.135 331.975 232.659 316.4 237.732Z" fill="#292F36"/>
<path d="M485.275 240.881C483.7 241.406 484.75 243.505 488.25 247.004C491.225 249.978 494.025 251.902 494.725 251.377C495.25 250.852 493.675 248.403 491.225 245.954C488.6 243.505 487.2 241.406 488.075 241.406C488.775 241.406 491.225 243.33 493.5 245.779C495.775 248.228 498.05 249.803 498.4 249.278C499.625 248.053 491.575 239.657 489.3 239.832C488.25 239.832 486.325 240.356 485.275 240.881Z" fill="#292F36"/>
<path d="M169.225 256.8C168.7 257.5 170.625 260.648 173.425 263.797C178.325 269.22 181.65 271.319 179.2 267.296C178.5 266.071 178.675 265.896 180.075 266.596C181.125 267.296 181.65 268.52 181.125 269.395C179.725 271.669 185.325 275.518 187.25 273.593C188.475 272.369 185.675 268.87 179.55 263.622C174.3 259.074 169.575 255.925 169.225 256.8Z" fill="#292F36"/>
<path d="M15.0502 276.742C14.1752 278.666 14.7002 280.766 16.2752 282.515C19.7752 285.839 21.0002 285.839 21.0002 282.515C21.0002 281.116 20.3002 279.891 19.4252 279.891C18.5502 279.891 17.5002 278.492 16.9752 276.742C16.2752 273.943 16.2752 273.943 15.0502 276.742Z" fill="#292F36"/>
<path d="M29.75 293.361C29.75 295.81 38.325 303.507 39.725 302.107C40.25 301.408 40.425 300.708 40.075 300.358C39.725 300.183 37.275 298.084 34.65 295.81C31.85 293.361 29.75 292.311 29.75 293.361Z" fill="#292F36"/>
<path d="M497.7 294.76C495.95 299.308 484.225 315.227 476.175 324.149C472.675 327.997 470.75 330.796 471.8 330.446C476.875 328.522 501.2 296.684 499.975 293.536C499.45 292.136 498.575 292.486 497.7 294.76Z" fill="#292F36"/>
<path d="M28.0002 304.207C28.0002 307.005 27.4752 310.504 26.9502 312.078C26.4252 313.653 26.7752 314.877 27.8252 314.877C28.8752 314.877 29.7502 312.428 29.7502 309.454C29.7502 304.731 30.2752 304.207 33.7752 305.431C37.6252 306.656 37.6252 306.481 34.3002 302.807C29.7502 297.734 28.0002 298.259 28.0002 304.207Z" fill="#292F36"/>
<path d="M481.6 301.233C478.1 304.731 479.325 306.83 483 303.507C488.95 298.084 487.025 304.032 480.2 312.428C476.7 316.627 474.775 319.775 476.175 319.251C477.575 318.726 481.25 314.702 484.575 310.329C489.475 303.857 490.175 302.107 488.075 300.708C484.75 298.609 484.05 298.784 481.6 301.233Z" fill="#292F36"/>
<path d="M188.125 304.207C185.325 305.781 182.525 307.18 182.175 307.355C181.825 307.705 181.825 308.405 182.35 308.93C183.05 309.454 185.85 308.58 188.825 307.18C191.625 305.606 196.175 304.381 198.8 304.381C204.4 304.381 203.875 303.507 197.75 302.282C195.3 301.757 191.1 302.632 188.125 304.207Z" fill="#292F36"/>
<path d="M214.375 304.381C213.675 305.431 215.775 306.131 219.45 306.131C222.95 306.131 225.75 305.256 225.75 304.381C225.75 303.332 223.475 302.632 220.675 302.632C217.7 302.632 214.9 303.332 214.375 304.381Z" fill="#292F36"/>
<path d="M124.25 312.603C124.425 314.528 133 324.149 133.875 323.274C134.925 322.225 127.575 311.379 125.825 311.379C124.95 311.379 124.25 311.904 124.25 312.603Z" fill="#292F36"/>
<path d="M120.75 320.825C120.75 322.924 128.625 334.12 130.025 334.12C130.9 334.12 130.025 331.671 128.275 328.697C125.125 323.274 120.75 318.726 120.75 320.825Z" fill="#292F36"/>
<path d="M161 325.198C161 326.073 159.075 327.298 156.625 327.822C152.425 328.872 150.325 332.371 154 332.371C155.05 332.371 155.75 331.671 155.75 330.621C155.75 329.747 158.55 328.522 162.05 327.822C166.425 326.948 167.65 326.248 165.9 325.198C162.925 323.274 161 323.274 161 325.198Z" fill="#292F36"/>
<path d="M115.5 326.248C115.5 326.598 117.425 328.872 119.7 331.146C121.8 333.42 124.075 336.394 124.6 337.793C125.125 339.193 126.175 339.718 126.875 339.018C128.45 337.618 119.7 325.373 117.075 325.373C116.2 325.373 115.5 325.723 115.5 326.248Z" fill="#292F36"/>
<path d="M68.25 330.621C68.25 331.671 67.55 332.021 66.5 331.496C65.625 330.971 64.75 331.671 64.75 333.07C64.75 334.645 64.05 335.869 63 335.869C62.125 335.869 61.25 337.094 61.25 338.493C61.25 342.167 63.525 341.817 66.5 337.793C67.725 335.869 69.475 334.645 70.35 335.169C71.05 335.694 71.75 334.82 71.75 333.42C71.75 332.021 71.05 330.271 70 329.747C69.125 329.222 68.25 329.572 68.25 330.621Z" fill="#292F36"/>
<path d="M225.925 338.843C224.875 342.517 224 347.065 224.175 348.989C224.175 350.913 225.4 348.114 226.625 342.866C229.25 331.846 228.725 328.697 225.925 338.843Z" fill="#292F36"/>
<path d="M396.375 341.467C390.25 351.088 371.35 370.681 365.925 372.78C363.65 373.655 362.25 374.879 362.6 375.404C363.125 375.929 368.55 374.354 374.675 371.905C387.275 366.657 387.8 366.482 385.175 369.631C384.125 371.031 383.775 372.43 384.3 372.955C384.825 373.48 382.725 374.879 379.575 375.929C376.425 376.978 374.325 378.378 374.85 378.902C377.65 381.526 419.125 359.835 425.25 352.488C428.75 348.289 425.425 349.514 418.425 354.937C410.55 361.234 389.9 372.605 386.575 372.605C383.775 372.605 393.575 364.033 396.55 363.858C400.05 363.858 430.15 338.493 428.575 336.919C428.05 336.394 421.4 341.467 413.875 348.114C406.175 354.937 399.175 360.535 398.125 360.535C397.25 360.71 394.8 360.884 392.875 361.059C390.95 361.234 389.375 362.109 389.375 363.334C389.375 364.383 388.675 365.958 387.8 366.832C386.925 367.707 386.75 367.357 387.45 365.958C389.2 363.159 386.4 363.334 382.2 366.482C374.85 372.08 376.25 368.581 385.175 358.96C395.15 348.464 403.55 336.394 401.975 334.82C401.45 334.295 398.825 337.269 396.375 341.467Z" fill="#292F36"/>
<path d="M408.275 346.89C405.475 350.039 400.75 354.412 397.95 356.511C395.15 358.61 393.75 360.36 394.975 360.36C397.6 360.36 415.975 343.566 414.575 342.167C414.05 341.642 411.25 343.741 408.275 346.89Z" fill="#292F36"/>
<path d="M79.8 349.339C78.575 352.488 81.375 356.511 83.475 354.412C84.175 353.712 83.65 352.488 82.25 351.613C79.975 350.214 80.15 349.864 82.775 349.864C84.525 349.864 85.4 348.989 84.875 348.114C83.3 345.49 81.025 346.015 79.8 349.339Z" fill="#292F36"/>
<path d="M103.6 356.336C105.35 363.508 109.55 370.331 111.125 368.756C111.825 368.232 110.6 365.083 108.675 361.934C106.575 358.61 105 354.587 105 352.838C105 351.263 104.3 349.864 103.425 349.864C102.55 349.864 102.55 352.663 103.6 356.336Z" fill="#292F36"/>
<path d="M428.575 356.686C424.9 359.485 411.425 367.007 391.125 377.678C380.8 383.101 386.575 382.051 398.475 376.453C417.9 367.182 439.25 353.537 434.7 353.362C433.65 353.362 430.85 354.762 428.575 356.686Z" fill="#292F36"/>
<path d="M57.5751 366.832C57.4001 368.582 57.4001 370.856 57.5751 371.905C57.7501 372.955 56.1751 378.378 54.2501 383.976C52.3251 389.573 51.1001 394.471 51.6251 394.996C51.9751 395.521 53.0251 393.947 53.9001 391.673C57.0501 383.451 57.7501 382.226 57.0501 387.124C56.7001 389.748 57.0501 392.197 57.7501 392.722C58.9751 393.422 61.2501 377.153 61.2501 368.057C61.2501 363.334 57.9251 362.284 57.5751 366.832Z" fill="#292F36"/>
<path d="M109.375 394.821C109.375 399.544 108.675 405.142 107.8 407.416C106.925 410.04 106.925 411.09 108.15 410.39C110.6 408.991 114.1 393.772 112.875 389.923C110.95 383.975 109.375 386.424 109.375 394.821Z" fill="#292F36"/>
<path d="M115.5 398.32C115.5 404.442 116.025 406.017 117.25 404.093C119.525 400.594 119.525 390.098 117.25 390.098C116.375 390.098 115.5 393.772 115.5 398.32Z" fill="#292F36"/>
<path d="M321.65 373.48C317.1 379.427 317.8 380.827 322.875 376.104C327.25 372.08 328.475 369.106 326.025 369.106C325.15 369.106 323.225 371.031 321.65 373.48Z" fill="#292F36"/>
<path d="M327.25 382.576C326.025 386.25 324.975 397.795 324.625 408.466L323.925 427.708L325.675 410.39C326.55 400.769 328.475 389.223 329.875 384.5C331.1 379.952 331.625 376.104 330.75 376.104C329.875 376.104 328.3 379.077 327.25 382.576Z" fill="#292F36"/>
<path d="M303.8 400.594C301.175 408.466 295.575 414.589 287.35 418.962C282.8 421.236 280.175 423.16 281.4 423.335C284.2 423.335 293.825 418.612 298.025 414.938C302.75 410.74 301.525 413.889 295.575 420.711C289.1 428.058 291.375 428.933 298.2 421.761C301.35 418.437 302.75 415.463 302.05 413.714C301.525 412.14 302.225 408.991 303.8 406.717C305.375 404.443 306.25 401.119 305.9 399.369C305.375 396.746 304.85 397.095 303.8 400.594Z" fill="#292F36"/>
<path d="M250.775 412.314C254.975 413.364 253.575 417.038 248.85 417.737C244.65 418.437 243.425 421.586 247.275 421.586C250.25 421.586 257.6 413.889 256.025 412.314C255.5 411.615 253.225 411.265 251.3 411.265C248.15 411.44 248.15 411.615 250.775 412.314Z" fill="#292F36"/>
<path d="M254.275 421.061C251.125 422.635 248.5 424.56 248.5 425.434C248.5 426.134 251.3 425.434 254.625 423.86C257.95 422.286 260.75 420.361 260.75 419.487C260.75 417.737 261.1 417.737 254.275 421.061Z" fill="#292F36"/>
<path d="M295.75 425.959C293.475 428.408 292.075 430.682 292.6 431.207C292.95 431.732 295.575 429.633 298.375 426.834C301.175 423.86 302.575 421.586 301.7 421.586C300.65 421.586 298.025 423.51 295.75 425.959Z" fill="#292F36"/>
<path d="M254.625 428.583C251.825 431.382 250.075 434.181 250.425 434.706C250.95 435.231 253.575 433.131 256.375 430.332C259.175 427.534 260.925 424.735 260.575 424.21C260.05 423.685 257.425 425.784 254.625 428.583Z" fill="#292F36"/>
<path d="M256.375 436.455C252.525 439.604 249.725 442.578 250.25 443.102C250.775 443.627 254.275 441.353 258.125 438.204C261.975 434.881 264.6 431.907 264.25 431.382C263.725 430.857 260.225 433.131 256.375 436.455Z" fill="#292F36"/>
<path d="M259 446.076C252.525 450.974 255.675 451.849 262.5 446.951C265.825 444.502 267.225 442.578 265.825 442.578C264.425 442.578 261.45 444.152 259 446.076Z" fill="#292F36"/>
<path d="M322.7 459.371C323.575 465.669 324.275 479.138 323.925 484.037C323.75 485.086 321.3 485.961 318.5 485.961C310.975 485.786 308.525 488.585 311.325 494.008C313.425 497.856 313.075 499.081 306.6 508.352C302.75 514.125 298.025 520.247 295.925 521.997C294 523.921 292.25 526.195 292.25 527.07C292.25 530.219 301 520.947 308.35 510.276C314.3 501.53 315.175 499.081 314.125 493.833C313.075 487.885 313.075 487.71 318.15 488.935C326.2 490.684 327.6 487.185 326.2 469.692C325.5 461.47 324.275 454.298 323.4 453.598C322.35 453.074 322 455.173 322.7 459.371Z" fill="#292F36"/>
<path d="M254.975 508.177C253.4 511.501 251.3 514.3 250.425 514.3C249.55 514.3 246.4 516.399 243.425 518.848L238 523.221L245.175 532.668C250.6 540.015 252.875 541.764 254.45 540.19C256.2 538.615 255.325 536.166 250.95 529.344C245.175 520.772 244.825 517.798 249.2 517.798C252.175 517.798 256.55 512.9 258.825 506.778C261.45 499.955 258.475 501.005 254.975 508.177ZM246.575 526.895C247.975 529.169 250.25 532.668 251.65 534.767C256.2 541.939 252.7 538.965 246.925 530.918C243.775 526.545 241.85 523.046 242.725 523.046C243.425 523.046 245.175 524.796 246.575 526.895Z" fill="#292F36"/>
<path d="M285.6 505.903C284.375 507.128 283.5 508.877 283.5 509.752C283.5 510.801 284.375 510.626 285.6 509.402C286.825 508.177 288.575 507.302 289.45 507.302C290.5 507.302 290.325 508.177 289.1 509.402C285.6 512.9 286.825 514.999 290.5 511.676C293.3 509.052 293.475 508.352 291.375 506.253C288.4 503.279 288.225 503.279 285.6 505.903Z" fill="#292F36"/>
<path d="M219.8 531.093C217.175 533.542 215.25 535.816 215.775 536.341C217.175 537.741 224 533.717 224 531.443C224 530.219 226.8 531.968 230.125 535.292C233.45 538.44 236.6 540.714 237.125 540.365C237.475 539.84 235.025 536.516 231.35 533.192L224.875 526.72L219.8 531.093Z" fill="#292F36"/>
<path d="M224 533.892C224 535.991 235.025 551.035 236.6 551.035C237.475 551.035 237.3 549.636 236.425 547.887C233.8 543.513 224.175 532.493 224 533.892Z" fill="#292F36"/>
<path d="M203.875 541.764C203 544.388 201.075 545.787 197.225 546.137C193.2 546.487 191.45 547.712 191.1 550.161C190.575 552.96 190.925 553.31 192.675 551.385C193.9 550.336 196.7 549.286 198.975 549.286C203 549.286 207.375 543.513 205.8 540.015C205.275 538.79 204.4 539.49 203.875 541.764Z" fill="#292F36"/>
<path d="M179.9 556.983C178.15 558.208 176.75 560.132 176.75 561.181C176.75 564.155 187.775 586.022 189.35 586.022C190.05 586.022 188.3 581.124 185.5 575.001C179.55 562.756 179.2 560.132 182.875 558.732C185.5 557.683 186.55 554.534 184.275 554.534C183.4 554.534 181.475 555.759 179.9 556.983Z" fill="#292F36"/>
<path d="M163.625 566.779C163.1 567.654 164.15 568.529 165.9 568.529C168.525 568.529 171.5 572.552 177.45 583.748C187.425 603.165 188.125 600.016 178.15 579.899C170.975 565.73 166.775 561.706 163.625 566.779Z" fill="#292F36"/>
<path d="M239.05 571.153C236.075 575.001 232.925 577.275 230.3 577.275C226.1 577.275 222.25 583.223 222.25 589.87C222.25 594.943 225.225 591.795 226.1 586.022C226.45 583.048 227.85 581.474 230.475 581.124C234.325 580.599 245 569.928 245 566.779C245 563.98 243.95 564.68 239.05 571.153Z" fill="#292F36"/>
<path d="M149.1 574.126C145.95 577.275 146.475 579.724 151.025 581.649C153.125 582.698 157.5 587.596 160.825 592.494C164.15 597.567 167.3 601.416 167.65 600.891C169.05 599.492 158.375 581.998 154.525 579.374C150.675 576.925 150.675 576.75 153.475 574.476C156.1 572.552 156.1 572.202 154 572.027C152.425 572.027 150.325 572.902 149.1 574.126Z" fill="#292F36"/>
<path d="M186.025 605.964C189.35 614.361 189.175 617.51 185.85 621.708C183.4 625.032 182 625.556 180.425 623.982C179.375 622.932 178.5 620.833 178.5 619.434C178.5 617.51 179.2 617.684 181.3 620.308C183.75 623.457 183.925 623.457 182 619.609C180.95 617.51 179.2 616.11 178.15 616.81C177.1 617.51 176.75 616.46 177.45 613.836C177.975 611.562 177.975 610.687 177.45 611.912C176.75 613.311 175.525 612.786 173.25 610.162C171.5 607.888 169.4 606.664 168.7 607.538C168 608.238 168.7 609.813 170.275 611.037C171.85 612.087 174.475 616.285 176.05 620.134C177.625 623.982 179.725 627.656 180.95 628.355C184.1 630.455 187.25 629.93 187.25 627.306C187.25 622.583 194.075 616.46 205.8 610.512C212.275 607.364 216.825 604.39 215.775 604.04C214.725 603.69 208.95 605.789 202.825 608.763C191.975 614.361 189.175 614.011 189 607.538C189 606.489 188.125 604.914 186.9 604.215C185.5 603.34 185.325 603.865 186.025 605.964Z" fill="#292F36"/>
<path d="M210.525 430.332C210.525 438.554 210.875 441.878 211.225 437.68C211.575 433.656 211.575 427.009 211.225 422.81C210.875 418.787 210.525 422.111 210.525 430.332Z" fill="#292F36"/>
</svg>
