<svg width="156" height="95" viewBox="0 0 156 95" fill="none" xmlns="http://www.w3.org/2000/svg">
<path d="M11.648 18.72H27.248V37.128H21.008V33.072H20.072C19.656 34.424 18.8587 35.568 17.68 36.504C16.5013 37.4053 14.7333 37.856 12.376 37.856C10.712 37.856 9.15201 37.544 7.69601 36.92C6.24001 36.296 4.97467 35.3773 3.90001 34.164C2.82534 32.916 1.97601 31.3907 1.35201 29.588C0.728006 27.7507 0.416006 25.6187 0.416006 23.192V14.664C0.416006 12.3067 0.745339 10.2267 1.40401 8.424C2.09734 6.58667 3.03334 5.044 4.21201 3.796C5.42534 2.548 6.86401 1.612 8.52801 0.987999C10.192 0.329333 12.0293 -2.38419e-07 14.04 -2.38419e-07C16.12 -2.38419e-07 17.9747 0.346667 19.604 1.04C21.2333 1.69867 22.62 2.63467 23.764 3.848C24.908 5.02667 25.7747 6.43067 26.364 8.06C26.9533 9.65467 27.248 11.3707 27.248 13.208V13.832H20.384V13.208C20.384 11.024 19.812 9.37734 18.668 8.268C17.5587 7.124 15.9813 6.552 13.936 6.552C11.9947 6.552 10.4 7.21067 9.15201 8.528C7.90401 9.81067 7.28001 12.0293 7.28001 15.184V22.88C7.28001 28.496 9.56801 31.304 14.144 31.304C16.1893 31.304 17.732 30.7667 18.772 29.692C19.8467 28.5827 20.384 27.1093 20.384 25.272H11.648V18.72ZM50.7159 33.384C50.0225 35.0133 49.0519 36.1747 47.8039 36.868C46.5559 37.5267 45.0999 37.856 43.4358 37.856C41.8759 37.856 40.4025 37.5613 39.0159 36.972C37.6639 36.3827 36.4678 35.516 35.4278 34.372C34.3878 33.228 33.5558 31.8413 32.9318 30.212C32.3425 28.5827 32.0478 26.728 32.0478 24.648V23.816C32.0478 21.7707 32.3425 19.9333 32.9318 18.304C33.5212 16.6747 34.3185 15.288 35.3239 14.144C36.3292 13 37.4905 12.1333 38.8078 11.544C40.1598 10.92 41.5985 10.608 43.1239 10.608C44.9612 10.608 46.4345 10.92 47.5439 11.544C48.6879 12.168 49.5892 13.1387 50.2479 14.456H51.1839V11.336H57.7359V29.328C57.7359 30.368 58.2039 30.888 59.1399 30.888H60.1279V37.128H55.6559C54.4772 37.128 53.5065 36.7813 52.7439 36.088C52.0159 35.3947 51.6519 34.4933 51.6519 33.384H50.7159ZM44.8918 31.616C46.7985 31.616 48.3239 30.992 49.4679 29.744C50.6119 28.4613 51.1839 26.728 51.1839 24.544V23.92C51.1839 21.736 50.6119 20.02 49.4679 18.772C48.3239 17.4893 46.7985 16.848 44.8918 16.848C42.9852 16.848 41.4599 17.4893 40.3159 18.772C39.1719 20.02 38.5999 21.736 38.5999 23.92V24.544C38.5999 26.728 39.1719 28.4613 40.3159 29.744C41.4599 30.992 42.9852 31.616 44.8918 31.616ZM91.7597 37.128H85.2077V19.032C85.2077 18.304 85.017 17.7667 84.6357 17.42C84.289 17.0387 83.821 16.848 83.2317 16.848C82.5384 16.848 81.9837 17.056 81.5677 17.472C81.1864 17.888 80.9957 18.512 80.9957 19.344V37.128H74.4437V19.032C74.4437 18.304 74.2357 17.7667 73.8197 17.42C73.4384 17.0387 72.9704 16.848 72.4157 16.848C71.7917 16.848 71.2717 17.056 70.8557 17.472C70.4397 17.888 70.2317 18.512 70.2317 19.344V37.128H63.6797V11.336H70.2317V13.832H71.1677C71.3757 12.896 71.8437 12.1333 72.5717 11.544C73.3344 10.92 74.3224 10.608 75.5357 10.608C76.6797 10.608 77.6504 10.92 78.4477 11.544C79.245 12.1333 79.7824 12.896 80.0597 13.832H80.9957C81.273 12.896 81.845 12.1333 82.7117 11.544C83.613 10.92 84.7224 10.608 86.0397 10.608C87.773 10.608 89.1597 11.1973 90.1997 12.376C91.2397 13.52 91.7597 15.1147 91.7597 17.16V37.128ZM103.476 26.364C103.51 27.1267 103.684 27.8373 103.996 28.496C104.342 29.12 104.793 29.6747 105.348 30.16C105.937 30.6107 106.596 30.9747 107.324 31.252C108.086 31.4947 108.884 31.616 109.716 31.616C111.345 31.616 112.593 31.3387 113.46 30.784C114.326 30.1947 114.95 29.5013 115.332 28.704L120.948 31.824C120.636 32.4827 120.202 33.176 119.648 33.904C119.093 34.5973 118.365 35.2387 117.464 35.828C116.597 36.4173 115.522 36.9027 114.24 37.284C112.992 37.6653 111.518 37.856 109.82 37.856C107.878 37.856 106.11 37.544 104.516 36.92C102.921 36.296 101.534 35.3947 100.356 34.216C99.2115 33.0373 98.3102 31.5987 97.6515 29.9C97.0275 28.2013 96.7155 26.2773 96.7155 24.128V23.816C96.7155 21.84 97.0449 20.0373 97.7035 18.408C98.3969 16.7787 99.3329 15.392 100.512 14.248C101.69 13.104 103.06 12.22 104.62 11.596C106.214 10.9373 107.913 10.608 109.716 10.608C111.934 10.608 113.841 11.0067 115.436 11.804C117.03 12.5667 118.348 13.5547 119.388 14.768C120.428 15.9467 121.19 17.264 121.676 18.72C122.161 20.1413 122.404 21.528 122.404 22.88V26.364H103.476ZM109.664 16.536C108 16.536 106.648 16.9693 105.608 17.836C104.568 18.668 103.892 19.6387 103.58 20.748H115.748C115.54 19.5347 114.881 18.5293 113.772 17.732C112.697 16.9347 111.328 16.536 109.664 16.536ZM128.295 11.336H139.215V15.08H140.151C140.637 13.6587 141.451 12.5667 142.595 11.804C143.774 11.0067 145.178 10.608 146.807 10.608C149.373 10.608 151.435 11.4227 152.995 13.052C154.555 14.6467 155.335 17.0907 155.335 20.384V21.528L148.575 22.152V21.424C148.575 20.0027 148.211 18.876 147.483 18.044C146.755 17.1773 145.663 16.744 144.207 16.744C142.751 16.744 141.607 17.2467 140.775 18.252C139.943 19.2573 139.527 20.696 139.527 22.568V30.888H145.455V37.128H127.671V30.888H132.975V17.576H128.295V11.336ZM20.28 58.856C20.28 57.4 19.708 56.1347 18.564 55.06C17.4547 53.9853 15.8773 53.448 13.832 53.448C12.0987 53.448 10.7293 53.812 9.72401 54.54C8.71867 55.2333 8.21601 56.1867 8.21601 57.4C8.21601 58.024 8.33734 58.596 8.58001 59.116C8.82267 59.6013 9.23867 60.052 9.82801 60.468C10.452 60.8493 11.2493 61.196 12.22 61.508C13.2253 61.82 14.4907 62.1147 16.016 62.392C19.8293 63.0853 22.7413 64.2467 24.752 65.876C26.7627 67.5053 27.768 69.9147 27.768 73.104V73.728C27.768 75.4267 27.456 76.9693 26.832 78.356C26.2427 79.708 25.376 80.8693 24.232 81.84C23.088 82.8107 21.7013 83.556 20.072 84.076C18.4427 84.596 16.6053 84.856 14.56 84.856C12.168 84.856 10.0533 84.5267 8.21601 83.868C6.41334 83.1747 4.90534 82.2387 3.69201 81.06C2.47867 79.8467 1.56001 78.4427 0.936006 76.848C0.312006 75.2187 6.09457e-06 73.4507 6.09457e-06 71.544V69.984H6.86401V71.232C6.86401 73.416 7.48801 75.1667 8.73601 76.484C10.0187 77.7667 11.9947 78.408 14.664 78.408C16.744 78.408 18.2867 77.9573 19.292 77.056C20.2973 76.1547 20.8 75.08 20.8 73.832C20.8 73.2427 20.696 72.688 20.488 72.168C20.28 71.6133 19.916 71.128 19.396 70.712C18.876 70.2613 18.1653 69.8627 17.264 69.516C16.3627 69.1693 15.2187 68.8747 13.832 68.632C11.9947 68.32 10.3133 67.9213 8.78801 67.436C7.26267 66.916 5.92801 66.24 4.78401 65.408C3.67467 64.576 2.80801 63.536 2.18401 62.288C1.56001 61.04 1.24801 59.5147 1.24801 57.712V57.4C1.24801 55.9093 1.54267 54.54 2.13201 53.292C2.75601 52.0093 3.60534 50.9 4.68001 49.964C5.78934 49.028 7.10667 48.3 8.63201 47.78C10.192 47.26 11.9253 47 13.832 47C15.9813 47 17.888 47.312 19.552 47.936C21.216 48.5253 22.6027 49.34 23.712 50.38C24.856 51.42 25.7053 52.616 26.26 53.968C26.8493 55.32 27.144 56.7413 27.144 58.232V60.104H20.28V58.856ZM39.2238 94.528H32.6718V58.336H39.2238V62.08H40.1599C40.8532 60.6587 41.8585 59.5667 43.1759 58.804C44.4932 58.0067 46.1745 57.608 48.2199 57.608C49.7452 57.608 51.1839 57.9027 52.5359 58.492C53.9225 59.0813 55.1185 59.948 56.1239 61.092C57.1639 62.2013 57.9785 63.5707 58.5679 65.2C59.1919 66.8293 59.5039 68.684 59.5039 70.764V71.7C59.5039 73.8147 59.2092 75.6867 58.6198 77.316C58.0305 78.9453 57.2332 80.332 56.2278 81.476C55.2225 82.5853 54.0265 83.4347 52.6399 84.024C51.2879 84.5787 49.8145 84.856 48.2199 84.856C47.0412 84.856 46.0185 84.7347 45.1519 84.492C44.2852 84.2493 43.5225 83.92 42.8639 83.504C42.2399 83.088 41.7025 82.62 41.2519 82.1C40.8359 81.5453 40.4719 80.9733 40.1599 80.384H39.2238V94.528ZM46.0878 78.616C48.1332 78.616 49.7799 77.992 51.0279 76.744C52.3105 75.4613 52.9519 73.728 52.9519 71.544V70.92C52.9519 68.736 52.3105 67.02 51.0279 65.772C49.7799 64.4893 48.1332 63.848 46.0878 63.848C44.0425 63.848 42.3785 64.5067 41.0959 65.824C39.8479 67.1067 39.2238 68.8053 39.2238 70.92V71.544C39.2238 73.6587 39.8479 75.3747 41.0959 76.692C42.3785 77.9747 44.0425 78.616 46.0878 78.616ZM82.5557 80.384C81.8624 82.0133 80.8917 83.1747 79.6437 83.868C78.3957 84.5267 76.9397 84.856 75.2757 84.856C73.7157 84.856 72.2424 84.5613 70.8557 83.972C69.5037 83.3827 68.3077 82.516 67.2677 81.372C66.2277 80.228 65.3957 78.8413 64.7717 77.212C64.1824 75.5827 63.8877 73.728 63.8877 71.648V70.816C63.8877 68.7707 64.1824 66.9333 64.7717 65.304C65.361 63.6747 66.1584 62.288 67.1637 61.144C68.169 60 69.3304 59.1333 70.6477 58.544C71.9997 57.92 73.4384 57.608 74.9637 57.608C76.801 57.608 78.2744 57.92 79.3837 58.544C80.5277 59.168 81.429 60.1387 82.0877 61.456H83.0237V58.336H89.5757V76.328C89.5757 77.368 90.0437 77.888 90.9797 77.888H91.9677V84.128H87.4957C86.317 84.128 85.3464 83.7813 84.5837 83.088C83.8557 82.3947 83.4917 81.4933 83.4917 80.384H82.5557ZM76.7317 78.616C78.6384 78.616 80.1637 77.992 81.3077 76.744C82.4517 75.4613 83.0237 73.728 83.0237 71.544V70.92C83.0237 68.736 82.4517 67.02 81.3077 65.772C80.1637 64.4893 78.6384 63.848 76.7317 63.848C74.825 63.848 73.2997 64.4893 72.1557 65.772C71.0117 67.02 70.4397 68.736 70.4397 70.92V71.544C70.4397 73.728 71.0117 75.4613 72.1557 76.744C73.2997 77.992 74.825 78.616 76.7317 78.616ZM122.872 74.664C122.282 77.7147 120.878 80.176 118.66 82.048C116.476 83.92 113.546 84.856 109.872 84.856C107.965 84.856 106.18 84.5613 104.516 83.972C102.886 83.3827 101.465 82.5333 100.252 81.424C99.0382 80.3147 98.0849 78.9453 97.3915 77.316C96.6982 75.6867 96.3515 73.832 96.3515 71.752V71.128C96.3515 69.048 96.6982 67.176 97.3915 65.512C98.0849 63.848 99.0382 62.4267 100.252 61.248C101.5 60.0693 102.938 59.168 104.568 58.544C106.232 57.92 108 57.608 109.872 57.608C113.477 57.608 116.389 58.544 118.608 60.416C120.861 62.288 122.282 64.7493 122.872 67.8L116.424 69.464C116.216 67.9387 115.557 66.6213 114.448 65.512C113.338 64.4027 111.778 63.848 109.768 63.848C108.832 63.848 107.948 64.0213 107.116 64.368C106.284 64.7147 105.556 65.2173 104.932 65.876C104.308 66.5 103.805 67.28 103.424 68.216C103.077 69.1173 102.904 70.14 102.904 71.284V71.596C102.904 72.74 103.077 73.7627 103.424 74.664C103.805 75.5307 104.308 76.2587 104.932 76.848C105.556 77.4373 106.284 77.888 107.116 78.2C107.948 78.4773 108.832 78.616 109.768 78.616C111.778 78.616 113.304 78.1133 114.344 77.108C115.418 76.1027 116.112 74.7507 116.424 73.052L122.872 74.664ZM135.315 73.364C135.35 74.1267 135.523 74.8373 135.835 75.496C136.182 76.12 136.633 76.6747 137.187 77.16C137.777 77.6107 138.435 77.9747 139.163 78.252C139.926 78.4947 140.723 78.616 141.555 78.616C143.185 78.616 144.433 78.3387 145.299 77.784C146.166 77.1947 146.79 76.5013 147.171 75.704L152.787 78.824C152.475 79.4827 152.042 80.176 151.487 80.904C150.933 81.5973 150.205 82.2387 149.303 82.828C148.437 83.4173 147.362 83.9027 146.079 84.284C144.831 84.6653 143.358 84.856 141.659 84.856C139.718 84.856 137.95 84.544 136.355 83.92C134.761 83.296 133.374 82.3947 132.195 81.216C131.051 80.0373 130.15 78.5987 129.491 76.9C128.867 75.2013 128.555 73.2773 128.555 71.128V70.816C128.555 68.84 128.885 67.0373 129.543 65.408C130.237 63.7787 131.173 62.392 132.351 61.248C133.53 60.104 134.899 59.22 136.459 58.596C138.054 57.9373 139.753 57.608 141.555 57.608C143.774 57.608 145.681 58.0067 147.275 58.804C148.87 59.5667 150.187 60.5547 151.227 61.768C152.267 62.9467 153.03 64.264 153.515 65.72C154.001 67.1413 154.243 68.528 154.243 69.88V73.364H135.315ZM141.503 63.536C139.839 63.536 138.487 63.9693 137.447 64.836C136.407 65.668 135.731 66.6387 135.419 67.748H147.587C147.379 66.5347 146.721 65.5293 145.611 64.732C144.537 63.9347 143.167 63.536 141.503 63.536Z" fill="#F7FFF7"/>
</svg>
